<?xml version="1.0" encoding="UTF-8" standalone="no"?>
<!-- Created with Inkscape (http://www.inkscape.org/) -->

<svg
   xmlns:dc="http://purl.org/dc/elements/1.1/"
   xmlns:cc="http://creativecommons.org/ns#"
   xmlns:rdf="http://www.w3.org/1999/02/22-rdf-syntax-ns#"
   xmlns:svg="http://www.w3.org/2000/svg"
   xmlns="http://www.w3.org/2000/svg"
   xmlns:sodipodi="http://sodipodi.sourceforge.net/DTD/sodipodi-0.dtd"
   xmlns:inkscape="http://www.inkscape.org/namespaces/inkscape"
   width="400"
   height="240"
   id="svg2"
   version="1.1"
   inkscape:version="0.48.0 r9654"
   sodipodi:docname="Blizzard_Entertainment_Logo.svg">
  <defs
     id="defs4">
    <inkscape:perspective
       sodipodi:type="inkscape:persp3d"
       inkscape:vp_x="0 : 526.18109 : 1"
       inkscape:vp_y="0 : 1000 : 0"
       inkscape:vp_z="744.09448 : 526.18109 : 1"
       inkscape:persp3d-origin="372.04724 : 350.78739 : 1"
       id="perspective10" />
    <marker
       orient="auto"
       markerHeight="3"
       markerWidth="4"
       markerUnits="strokeWidth"
       refY="5"
       refX="10"
       viewBox="0 0 10 10"
       id="ArrowStart">
      <path
         id="path2824"
         d="M 10,0 0,5 10,10 z"
         inkscape:connector-curvature="0" />
    </marker>
    <marker
       orient="auto"
       markerHeight="3"
       markerWidth="4"
       markerUnits="strokeWidth"
       refY="5"
       refX="0"
       viewBox="0 0 10 10"
       id="ArrowEnd">
      <path
         id="path2821"
         d="M 0,0 10,5 0,10 z"
         inkscape:connector-curvature="0" />
    </marker>
    <inkscape:perspective
       id="perspective2844"
       inkscape:persp3d-origin="91.143501 : 60.802002 : 1"
       inkscape:vp_z="182.287 : 91.203003 : 1"
       inkscape:vp_y="0 : 1000 : 0"
       inkscape:vp_x="0 : 91.203003 : 1"
       sodipodi:type="inkscape:persp3d" />
    <marker
       orient="auto"
       markerHeight="3"
       markerWidth="4"
       markerUnits="strokeWidth"
       refY="5"
       refX="10"
       viewBox="0 0 10 10"
       id="ArrowStart-7">
      <path
         id="path2884"
         d="M 10,0 0,5 10,10 z"
         inkscape:connector-curvature="0" />
    </marker>
    <marker
       orient="auto"
       markerHeight="3"
       markerWidth="4"
       markerUnits="strokeWidth"
       refY="5"
       refX="0"
       viewBox="0 0 10 10"
       id="ArrowEnd-1">
      <path
         id="path2881"
         d="M 0,0 10,5 0,10 z"
         inkscape:connector-curvature="0" />
    </marker>
    <inkscape:perspective
       id="perspective2904"
       inkscape:persp3d-origin="91.143501 : 60.802002 : 1"
       inkscape:vp_z="182.287 : 91.203003 : 1"
       inkscape:vp_y="0 : 1000 : 0"
       inkscape:vp_x="0 : 91.203003 : 1"
       sodipodi:type="inkscape:persp3d" />
  </defs>
  <sodipodi:namedview
     id="base"
     pagecolor="#000000"
     bordercolor="#666666"
     borderopacity="1.0"
     inkscape:pageopacity="0"
     inkscape:pageshadow="2"
     inkscape:zoom="5.0166667"
     inkscape:cx="200"
     inkscape:cy="120"
     inkscape:document-units="px"
     inkscape:current-layer="layer1"
     showgrid="false"
     inkscape:window-width="2560"
     inkscape:window-height="1392"
     inkscape:window-x="0"
     inkscape:window-y="0"
     inkscape:window-maximized="0"
     fit-margin-top="0"
     fit-margin-left="0"
     fit-margin-right="0"
     fit-margin-bottom="0" />
  <metadata
     id="metadata7">
    <rdf:RDF>
      <cc:Work
         rdf:about="">
        <dc:format>image/svg+xml</dc:format>
        <dc:type
           rdf:resource="http://purl.org/dc/dcmitype/StillImage" />
        <dc:title />
      </cc:Work>
    </rdf:RDF>
  </metadata>
  <g
     inkscape:label="Layer 1"
     inkscape:groupmode="layer"
     id="layer1"
     transform="translate(-288.79782,-331.27655)">
    <g
       id="g3789"
       transform="matrix(2,0,0,2,-288.79782,-571.27655)">
      <rect
         y="451.27655"
         x="288.79782"
         height="120"
         width="200"
         id="rect3621"
         style="fill:#000000;fill-opacity:1;stroke:none" />
      <path
         id="path2892"
         d="m 303.73064,549.58519 4.4782,0 0,1.206 -2.75942,0 0,1.302 2.60472,0 0,1.225 -2.60472,0 0,1.47 2.86322,0 0,1.243 -4.582,0 0,-6.446 z m 158.2946,0 4.911,0 0,1.288 -1.596,0 0,5.158 -1.719,0 0,-5.158 -1.596,0 0,-1.288 z m -14.593,0 2.146,0 1.868,3.865 c 0.063,0.13 0.138,0.311 0.223,0.542 0.085,0.232 0.178,0.515 0.282,0.85 -0.056,-0.318 -0.095,-0.609 -0.121,-0.875 -0.026,-0.267 -0.039,-0.509 -0.039,-0.731 l 0,-3.651 1.552,0 0,6.446 -2.137,0 -1.94,-4.006 c -0.092,-0.184 -0.175,-0.384 -0.251,-0.601 -0.074,-0.216 -0.144,-0.452 -0.208,-0.706 0.061,0.384 0.106,0.737 0.134,1.059 0.029,0.322 0.043,0.607 0.043,0.852 l 0,3.402 -1.552,0 0,-6.446 z m -12.491,0 4.479,0 0,1.206 -2.76,0 0,1.302 2.605,0 0,1.225 -2.605,0 0,1.47 2.863,0 0,1.243 -4.582,0 0,-6.446 z m -15.555,0 2.497,0 1.121,3.874 c 0.045,0.155 0.079,0.327 0.107,0.519 0.028,0.192 0.048,0.399 0.061,0.619 0.021,-0.238 0.048,-0.458 0.078,-0.66 0.033,-0.201 0.068,-0.373 0.108,-0.515 l 1.123,-3.837 2.457,0 0,6.446 -1.537,0 0,-4.328 c 0,-0.206 0.006,-0.418 0.018,-0.64 0.012,-0.221 0.028,-0.456 0.051,-0.707 -0.039,0.193 -0.082,0.379 -0.125,0.556 -0.043,0.176 -0.09,0.344 -0.139,0.502 l -1.381,4.617 -1.468,0 -1.351,-4.542 c -0.046,-0.156 -0.091,-0.331 -0.134,-0.523 -0.043,-0.192 -0.084,-0.395 -0.121,-0.61 0.021,0.305 0.037,0.581 0.05,0.824 0.013,0.243 0.019,0.427 0.019,0.551 l 0,4.3 -1.434,0 0,-6.446 z m -13.948,0 2.146,0 1.868,3.865 c 0.063,0.13 0.138,0.311 0.223,0.542 0.085,0.232 0.178,0.515 0.282,0.85 -0.056,-0.318 -0.095,-0.609 -0.121,-0.875 -0.026,-0.266 -0.039,-0.509 -0.039,-0.731 l 0,-3.651 1.552,0 0,6.446 -2.137,0 -1.94,-4.006 c -0.09,-0.185 -0.176,-0.384 -0.251,-0.601 -0.075,-0.216 -0.144,-0.452 -0.208,-0.706 0.061,0.384 0.105,0.738 0.133,1.059 0.029,0.322 0.044,0.608 0.044,0.852 l 0,3.402 -1.552,0 0,-6.446 z m -10.0798,0 1.7188,0 0,6.446 -1.7188,0 0,-6.446 z m -10.8348,1.438 -0.8345,2.418 1.6413,0 -0.8068,-2.418 z m -1.0034,-1.438 2.0735,0 2.4404,6.446 -1.8365,0 -0.4583,-1.366 -2.4822,0 -0.4801,1.366 -1.7017,0 2.4449,-6.446 z m -14.0964,0 4.9117,0 0,1.288 -1.5965,0 0,5.158 -1.7188,0 0,-5.158 -1.5964,0 0,-1.288 z m -10.8595,1.133 0,1.652 0.6038,0 c 0.3717,0 0.6504,-0.066 0.8363,-0.201 0.1856,-0.135 0.2787,-0.337 0.2787,-0.607 0,-0.289 -0.1039,-0.503 -0.3113,-0.639 -0.206,-0.137 -0.5343,-0.205 -0.9818,-0.205 l -0.4257,0 z m -1.6833,-1.133 2.5627,0 c 0.8533,0 1.4866,0.138 1.8984,0.415 0.4135,0.277 0.6195,0.698 0.6195,1.263 0,0.418 -0.1084,0.761 -0.3267,1.03 -0.2185,0.27 -0.5326,0.449 -0.9432,0.541 0.3377,0.123 0.6101,0.475 0.8161,1.055 0,0.004 0,0.005 0,0.005 l 0.7713,2.137 -1.7917,0 -0.5667,-1.765 c -0.0914,-0.283 -0.2154,-0.48 -0.3717,-0.59 -0.1578,-0.109 -0.4025,-0.163 -0.7355,-0.163 l -0.2492,0 0,2.518 -1.6833,0 0,-6.446 z m -12.7928,0 4.4781,0 0,1.206 -2.7593,0 0,1.302 2.6046,0 0,1.225 -2.6046,0 0,1.47 2.8632,0 0,1.243 -4.582,0 0,-6.446 z m -12.9376,0 4.9118,0 0,1.288 -1.5965,0 0,5.158 -1.7188,0 0,-5.158 -1.5965,0 0,-1.288 z m -14.6272,0 2.1461,0 1.8675,3.865 c 0.0636,0.13 0.1379,0.311 0.223,0.542 0.0852,0.232 0.1782,0.515 0.2818,0.85 -0.0556,-0.318 -0.0945,-0.609 -0.1206,-0.875 -0.0264,-0.267 -0.0388,-0.509 -0.0388,-0.731 l 0,-3.651 1.5516,0 0,6.446 -2.137,0 -1.9402,-4.006 c -0.0914,-0.184 -0.175,-0.384 -0.2508,-0.601 -0.0744,-0.216 -0.1439,-0.452 -0.2075,-0.706 0.0604,0.384 0.1053,0.737 0.1331,1.059 0.0295,0.322 0.0434,0.607 0.0434,0.852 l 0,3.402 -1.5516,0 0,-6.446 z"
         style="fill:#ffffff;stroke:#000000;stroke-width:0.21602701"
         inkscape:connector-curvature="0" />
      <path
         id="path2894"
         d="m 346.88584,529.89219 c 0,0 0.3497,1.539 1.2123,0.959 0.8626,-0.579 1.2123,-1.448 2.0749,-1.448 0.8626,0 4.4584,-0.676 5.321,0 0.8626,0.676 0.949,0.096 1.3803,0.096 0.4313,0 1.6983,0.225 1.6983,0.225 1.1028,-0.115 0.878,-1.868 0.081,-2.381 -1.1505,-0.901 -2.6994,-1.48 -3.8496,-2.382 -0.1153,-0.869 -0.2301,-1.738 -0.3451,-2.607 0.3162,-0.45 0.6325,-0.901 0.949,-1.352 0,-1.4478 0,-2.8962 0,-4.3446 -0.1726,-0.3863 -0.3452,-0.7725 -0.5177,-1.1588 -0.0576,-1.0941 -0.1151,-2.1883 -0.1726,-3.2828 -0.1437,-0.1932 -0.2876,-0.3863 -0.4313,-0.5794 0,-0.4182 0,-0.8367 0,-1.2553 0.2876,-0.4182 0.8701,-0.8366 1.1579,-1.2551 0.0862,-0.8047 -0.2994,-1.3726 -0.2131,-2.1773 -0.2014,-1.0298 -0.2259,-2.2965 -0.4271,-3.3264 0,-1.2553 0,-2.5106 0,-3.7657 0.8344,-0.2488 1.0366,-0.6186 1.0962,-0.9928 0.0766,-0.4816 -0.1593,-1.0485 -0.4062,-2.1937 -0.115,-6.0186 -0.1709,-12.2741 -0.2859,-18.2929 0.4589,-0.7193 1.009,-1.0914 1.0206,-1.6243 0.009,-0.4149 -0.4365,-0.7608 -0.9934,-1.2287 0,-0.4184 0,-0.8366 0,-1.2553 0,0 0.949,-1.9312 1.7252,-1.9312 0.7765,0 1.2941,-0.5792 1.2941,-1.1585 0.7084,-1.4075 -0.7764,-1.545 -0.7764,-1.545 -1.6432,-0.0341 -3.5044,0.05 -5.1073,0.0162 -1.414,-0.0301 -2.5746,-0.179 -3.9505,-0.2093 -0.6039,0.0324 -1.2078,0.0643 -1.8117,0.0965 -1.4841,0.4507 -1.1722,1.2566 -0.6038,1.7068 0.69,0.4344 1.2789,0.932 2.0703,0.9486 0.9658,0.0201 1.7346,0.3366 2.0704,1.3034 0.0864,3.8623 0.1725,7.7247 0.2587,11.5869 0.0289,2.8485 0.1167,5.6972 0.1452,8.5452 0.0288,2.8482 -10e-4,5.6969 0.0274,8.5453 0.0575,3.3475 0.115,6.6947 0.1726,10.042 0,0 -0.1726,1.2553 -0.4314,1.545 -0.2587,0.2896 -0.1725,2.8 -0.1725,2.8 0.9554,0.8323 0.7523,0.7158 0.0864,1.8347 -0.0578,2.4785 -0.1153,4.9565 -0.1726,7.4345 -0.2301,0.451 -0.4602,0.902 -0.6903,1.352 0,0 -2.4833,1.455 -2.4833,2.71 z m -41.77697,12.003 c -1.27918,-0.263 -1.51903,-0.882 -1.06467,-1.247 0.27266,-0.219 1.00154,-0.211 1.32922,-0.364 0.47952,-0.226 0.96932,-0.522 1.25802,-0.879 0.4934,-0.611 0.1941,-2.025 0.7829,-3.177 0.5658,-4.86 0.7353,-11.299 0.1698,-13.465 -0.3395,-3.3382 0.009,-14.4267 0.009,-15.8321 0.3757,-0.6751 0.5167,-0.7304 0.5196,-1.9134 0.001,-0.4624 0.3121,-1.182 -0.0193,-1.7539 -0.4807,-0.5488 -0.3354,-2.6945 -0.373,-3.904 -0.0556,-1.8004 0.0765,-1.7856 0.5775,-3.4168 0.1886,-0.6136 0.2525,-1.3437 0,-1.9322 -0.4082,-0.9509 -0.9984,0.1478 -0.9591,-1.762 0.0963,-4.6345 0.2691,-9.2971 0.1472,-13.9297 0.0264,-0.4128 0.7139,-0.4882 0.8485,-0.8784 0.1711,-0.4961 0.2278,-1.1097 0,-1.5809 -0.129,-0.2671 -0.851,0.0803 -1.0628,-0.1221 -1.2944,-1.2368 -2.92094,-2.0137 -3.671,-3.6639 -0.29073,-0.64 0.17817,-2.0563 0.7945,-2.3624 1.02106,-0.5073 2.9203,0.0171 4.0375,-0.1756 0.6008,-0.1035 0.981,-0.461 1.5896,-0.4878 4.7469,-0.2091 9.6316,-0.6836 14.3615,-0.215 0.7571,0.075 1.0067,1.4107 1.6968,1.7423 0.946,0.4546 2.3293,0.3572 3.0544,1.133 1.1623,1.243 1.9962,2.267 2.1437,3.9901 0.181,2.1146 0.5444,4.5097 0.5266,6.134 -0.015,1.3602 -0.4238,2.5879 -1.0302,3.7578 -0.8306,1.6034 -1.8193,3.0997 -2.89,4.6836 -0.6172,0.9128 -1.7157,1.7603 -1.9742,2.8013 -0.2671,1.0761 2.5131,0.2861 3.0819,1.2283 0.5467,0.9058 -0.4664,1.9671 -0.1608,2.9878 0.2729,0.9103 1.8492,0.999 2.0363,1.9322 0.4828,2.4086 -0.5825,4.9556 -0.1696,7.3779 0.132,0.7756 1.3626,0.8032 1.4822,1.5811 0.1452,1.6808 0.0933,3.46 0.1064,5.2457 0.0137,1.9007 0.0874,3.8099 0.0631,5.6167 -0.0467,0.6811 -0.9384,1.0794 -1.018,1.7564 -0.2124,1.803 0.4071,3.839 0.009,5.607 -0.4195,1.862 -1.9165,3.177 -2.5005,4.991 -0.5058,1.571 -0.3623,3.865 -1.1786,4.85 -1.35,0.424 -3.0304,1.374 -4.0938,2.166 -1.5539,1.156 -2.5473,2.481 -3.025,2.523 -0.607,0.54 -1.8911,0.179 -2.6437,0.46 -0.694,0.258 -0.7594,0.84 -1.4912,0.745 -0.5779,-0.074 -0.3978,-0.554 -0.8485,-0.935 -0.2624,-0.223 -0.767,-0.237 -1.0181,0 -1.5232,1.226 -0.3871,0.905 -2.1167,0.745 -1.757,-0.162 -5.1769,0.38 -7.31577,-0.058 z m 9.84297,-7.051 c 0.396,-0.761 0.792,-1.522 1.1881,-2.284 -0.1134,-2.517 -0.2264,-5.035 -0.3396,-7.553 0.3396,-0.469 0.6789,-0.937 1.0182,-1.406 0,-2.536 0,-5.072 0,-7.6083 0,-1.153 -0.1607,-2.3059 -0.1607,-3.4584 -1.1912,-0.9853 -0.6216,-0.971 0.3393,-2.1079 0,-1.1124 0.2683,-2.0099 0.2683,-3.1226 -0.1134,-0.9367 -0.2264,-1.8737 -0.3396,-2.8106 0.1699,-0.4683 0.3396,-0.9368 0.5092,-1.4053 0,-1.4089 0.1607,-2.549 0.1607,-3.9581 0,-1.323 0.0383,-1.7662 0.2802,-1.6833 0.2419,0.0828 0.6877,0.6923 1.5016,1.4748 0.6184,0.5947 1.2372,1.1897 1.8558,1.7842 1.1427,1.0981 2.2554,1.198 1.7923,2.9973 -0.4328,1.6833 0.8111,2.1503 0.4245,3.8207 -0.2953,1.2759 -0.6835,2.056 -0.5975,2.847 0.0513,0.4745 0.2737,0.953 0.7883,1.5448 0.4757,0.5468 0.6342,0.5127 0.3499,1.1857 -0.4409,1.0429 -0.8167,1.6511 -0.8608,2.2772 -0.0568,0.8045 0.3815,1.1743 0.7659,2.5955 0.3146,1.1625 0.2851,1.9333 -0.006,3.0993 -0.3447,1.383 -0.6894,2.766 -1.0342,4.149 -0.0388,1.046 -0.1341,2.093 -0.2084,3.14 -0.1124,1.595 -0.325,1.636 -1.4341,2.776 -1.0076,1.036 -2.3044,1.922 -3.2765,2.848 -1.0746,0.41 -1.9106,0.448 -2.9853,0.858 z m 2.5962,-44.3848 c 0.8609,0.0253 1.2459,0.1105 1.5128,6e-4 0.267,-0.1102 0.4161,-0.4157 0.8055,-1.171 0.5029,-0.9766 1.2478,-2.197 1.8656,-2.2888 1.0408,-0.1545 1.5838,-0.3094 1.5838,-0.3094 0,0 0.5447,-0.1032 0.3584,-1.4455 -0.1865,-1.3423 -0.5706,-2.6331 -0.2321,-2.9944 0.3382,-0.3613 0.4097,-1.3938 0.0496,-1.8069 -0.3597,-0.4128 -0.7019,-0.826 -0.1205,-1.3938 0.5813,-0.5679 0.9821,-1.5186 -0.407,-1.3636 -1.389,0.1549 -1.3718,-0.4463 -1.5323,-0.8595 -0.1607,-0.4129 -1.6758,-0.3186 -2.468,-0.3641 -0.7914,0.1549 -1.4569,0.1032 -1.4341,0.9291 0.0231,0.8259 -0.11,4.8073 -0.0986,5.2203 0.0114,0.413 0.1169,7.847 0.1169,7.847 z m 43.9378,36.2408 c -0.0619,0.351 -0.8676,0.353 -0.8057,0.705 0.0866,0.491 0.1188,1.258 0.6136,1.322 1.4349,0.186 3.4021,-0.385 4.825,-0.122 0.5619,0.104 0.5926,1.062 1.1078,1.309 0.4232,-0.007 1.0747,0.008 1.6115,0 0.4132,-0.215 0.3021,-0.973 0.705,-1.208 0.4961,-0.29 1.1728,-0.4 1.7121,-0.202 0.2903,0.107 -0.1059,0.87 0.2014,0.907 2.5102,-0.095 4.7527,0.18 7.1277,0 0.4743,-0.078 -0.009,-0.757 0.3796,-1.039 0.4417,-0.321 1.5369,0.239 1.6114,-0.302 0.3857,-2.797 -0.2164,-5.92 0.0463,-8.7305 0.0841,-0.8998 0.9474,-1.4333 1.1405,-2.3164 0.0642,-0.2941 0.4168,-0.2993 0.4448,-0.589 0.0978,-1.0086 0.0799,-2.2319 -0.1753,-3.2251 -0.3384,-0.347 -1.3728,-0.4732 -1.7121,-0.3152 -0.3823,0.2816 -0.0347,1.281 -0.2914,1.6801 -0.127,0.1977 -0.5791,-0.1981 -0.705,0 -0.1237,0.1948 0.0362,0.5144 0.0929,0.7671 0.034,0.1514 0.0309,0.2791 -0.0929,0.3408 -0.6605,0.3302 -1.633,-0.4533 -2.2157,0 -0.5719,0.4448 0.0702,1.3055 -0.4136,1.8448 -0.7843,0.8741 -2.4649,1.3862 -3.2461,2.2631 -0.9289,1.0423 -0.846,2.1063 -1.9134,3.0063 -0.8356,0.704 -2.2554,0.778 -3.2679,1.189 -1.1737,0.477 -1.7342,1.356 -2.9533,1.699 -0.3684,0.104 -0.8178,-0.54 -0.705,-0.906 0.9134,-2.961 2.1004,-5.9379 3.0866,-8.8757 0.6325,-1.8847 0.9295,-3.0737 1.6129,-4.941 0.7073,-1.9323 1.6311,-4.3207 2.7859,-6.0239 0.2274,-0.3356 0.9862,-0.1165 1.1079,-0.5036 0.3019,-0.9607 -0.2631,-2.0494 0,-3.0214 0.1945,-0.7194 0.9519,-1.4098 1.5788,-1.8129 0.4234,-0.2722 1.0993,0.1071 1.2862,-0.3603 0.4365,-1.0912 0.0287,-2.2471 0.3036,-3.3898 0.1853,-0.7698 0.714,-1.2416 1.0506,-1.9586 0.4464,-0.9517 0.4138,-1.7778 0.9064,-2.7065 0.401,-0.7556 1.2447,-1.8132 1.4877,-2.6337 0.3337,-1.1267 0.0602,-1.6797 0.1688,-2.8499 0.0291,-0.315 0.4907,-0.4894 0.5036,-0.8057 0.1563,-3.79 0.3569,-7.5934 0.1345,-11.3805 -0.018,-0.3086 -0.7112,-0.2953 -0.705,-0.6043 0.0241,-1.1573 0.1645,-2.1798 0.1007,-3.2228 -0.0122,-0.2038 0.0582,-0.3707 -0.1455,-0.3792 -3.1537,-0.1323 -6.2665,-0.0605 -9.4223,-0.0237 -2.5849,0.0299 -5.1763,-0.1773 -7.755,0 -0.3902,0.0268 -0.7399,0.0939 -1.0072,0.3792 -0.2564,0.2737 -0.3837,0.8578 -0.3688,1.2322 0.0679,1.6831 -0.0338,3.5155 0,5.5393 0.006,0.375 0.7449,0.1506 0.8724,0.5036 0.3551,0.9832 0.3823,2.0801 0.3022,3.1221 -0.0256,0.3348 -0.4326,0.7856 -0.4247,1.1208 0.1618,1.1651 0.3127,1.9885 0.5254,3.1092 0.1223,0.4334 0.4952,0.7719 0.6043,1.2086 0.1302,0.522 -0.3458,1.5765 0.1906,1.6114 0.1782,0.0114 0.7999,0.1153 1.1186,0 0.4098,-0.1485 -0.1507,-0.8998 0,-1.3093 0.1068,-0.2903 0.656,-0.299 0.705,-0.6042 0.2663,-1.6584 -0.1964,-3.6017 0.0667,-5.2609 0.0802,-0.5056 0.37,-1.0397 0.8057,-1.3092 0.3707,-0.2295 1.0414,0.3443 1.3093,0 0.3713,-0.4777 0.006,-1.028 0.2355,-1.5878 0.3287,-0.8011 0.8634,-1.5398 1.5107,-2.115 0.5945,-0.5285 1.1893,-1.161 1.9802,-1.2433 1.7684,-0.1837 3.8837,-0.0188 6.2784,-0.1219 0.2245,-0.01 0.2849,0.3352 0.3021,0.5595 0.0847,1.1045 0.2858,2.6051 0,3.3236 -0.4147,1.0428 -1.3529,2.2067 -2.3054,3.2897 -0.6516,0.7405 -1.3103,1.3959 -1.8131,2.1382 -0.6026,0.8899 0.2978,2.1034 -0.0108,3.1328 -0.3158,1.053 -1.1784,2.1723 -1.8469,3.0451 -0.5484,0.716 -1.3545,1.0825 -1.8685,1.8234 -0.6419,0.9251 -1.0157,1.8361 -1.421,2.8865 -0.337,0.8734 -0.5542,1.7952 -0.705,2.7193 -0.119,0.7297 0.2297,1.5547 -0.1007,2.2157 -0.2421,0.4842 -0.7883,0.3949 -1.1405,0.8057 -0.4884,0.57 -0.7745,1.3007 -1.0071,2.0143 -0.2756,0.8451 -0.2982,1.3458 -0.7283,2.1235 -0.4826,0.8724 -1.4513,1.715 -1.8903,2.61 -0.4789,0.9762 -0.5337,2.1624 -0.7731,3.2229 -0.2315,1.0256 -0.4251,1.9916 -0.6369,3.0214 -0.2594,1.2603 -0.5301,2.5409 -0.5036,3.8272 0.008,0.3914 0.422,0.6609 0.6043,1.0071 0.1539,0.2924 0.5073,0.5929 0.4029,0.9064 -0.1427,0.4284 -0.9434,0.4594 -1.0072,0.9065 -0.0658,0.4616 0.0517,0.8879 0.3906,1.2089 0.2947,0.278 0.8963,0.157 1.1079,0.503 0.2276,0.373 0.1867,0.915 0,1.309 -0.1553,0.329 -0.7006,0.249 -0.7717,0.605 -0.2896,1.449 0.0659,2.481 -0.1906,3.936 z m 87.3224,14.273 c -0.189,-0.6 0.283,-0.717 0.597,-1.03 0.459,-0.458 0.903,-0.905 1.085,-1.807 0.069,-0.342 0.419,-0.895 0.5,-1.443 0.119,-0.8 -0.063,-1.634 -0.281,-2.151 -0.286,-0.677 -0.755,-1.03 -0.585,-1.676 0.06,-0.413 0.994,-0.464 1.73,-0.791 0.386,-0.171 0.717,-0.506 0.84,-0.821 0.161,-0.415 -0.375,-0.344 -0.648,-0.871 -0.291,-0.561 -0.334,-1.401 -0.558,-1.819 -0.391,-0.728 -1.106,-1.705 -1.132,-2.532 -0.07,-2.206 0.569,-4.433 0.651,-6.5555 0.069,-1.7798 0.49,-2.204 0.354,-4.0277 -0.067,-0.9081 -0.555,-1.5689 -1.059,-2.496 -0.417,-0.7684 -0.965,-1.5288 -1.175,-2.2536 -0.373,-1.2897 0.002,-2.8185 -0.224,-4.1419 -0.044,-0.2594 -0.694,-0.5767 -0.718,-0.839 -0.168,-1.8168 0.037,-3.6772 -0.08,-5.4742 -0.06,-0.3381 -0.334,-0.4025 -0.366,-0.7443 -0.095,-1.0073 -10e-4,-1.9883 -0.004,-2.859 -0.003,-0.7684 -0.109,-1.425 -0.109,-2.3179 0,-0.3329 -0.276,-0.5609 -0.287,-0.8938 -0.067,-1.9648 0.015,-4.1344 -0.011,-6.1024 -0.028,-2.0951 -0.156,-3.9889 0.011,-6.0751 0.029,-0.3517 0.74,-0.3432 0.726,-0.6956 -0.066,-1.5986 -0.204,-2.2344 -0.167,-3.8423 0.004,-0.1855 0.384,-0.6166 0.399,-0.8016 0.111,-1.3377 0.277,-2.6767 -0.064,-3.8215 -0.246,-0.8292 -0.868,-1.0875 -1.582,-1.6224 -0.63,-0.4725 -1.333,-1.2406 -1.916,-1.6711 -0.746,-0.5513 -1.243,-0.9947 -1.808,-1.8203 -0.34,-0.4969 0.221,-0.5403 0.847,-0.5586 0.804,-0.0235 1.682,0.0467 2.447,0.1665 0.259,0.0405 0.746,0.4868 0.991,0.5817 0.59,0.2288 0.976,-0.0683 1.58,0.1202 0.461,0.1441 2.386,1.1477 2.904,1.4462 0.708,0.4078 0.937,1.0004 1.676,1.3468 0.133,0.0623 2.416,0.7158 2.681,0.7821 0.618,0.1543 1.002,-0.2976 1.62,-0.1433 0.718,0.179 1.995,0.5407 2.801,0.782 0.454,0.1358 0.741,0.6724 1.206,0.765 2.255,0.45 1.852,-0.3017 3.638,1.484 0.526,0.5262 1.395,0.9488 1.787,1.5811 0.554,0.8923 0.612,1.986 0.964,2.9585 0.274,0.7561 0.886,1.3772 1.031,2.1806 0.391,2.1621 -0.017,4.4104 0.248,6.5915 0.081,0.6662 0.766,1.3689 0.838,2.0363 0.273,2.555 0.319,5.0779 0.008,7.6285 -0.105,0.8597 -0.829,1.2094 -0.958,2.0658 -0.215,1.4366 0.214,2.9078 0.112,4.3571 -0.048,0.694 -0.434,1.4185 -0.798,2.0109 -0.266,0.4314 -0.874,0.5869 -1.069,1.0539 -0.513,1.226 -0.384,2.9022 -0.622,4.2306 -0.074,2.5355 -0.022,4.5025 0.087,7.0365 0.077,1.7861 0.26,3.3893 0.032,5.1623 -0.08,0.614 -0.594,0.951 -0.686,1.564 -0.254,1.694 -0.036,3.434 -0.2,5.139 -0.028,0.29 -0.458,0.626 -0.519,0.911 -0.114,1.558 -0.223,3.832 -0.902,5.586 -0.447,1.157 -1.534,2.323 -2.578,2.993 -1.011,0.649 -2.098,0.789 -3.263,1.086 -0.736,0.187 -1.56,0.097 -2.234,0.446 -0.404,0.21 -0.133,0.213 -0.502,0.477 -0.213,0.151 -0.581,0.164 -0.782,0 -0.284,-0.233 -0.196,-0.328 -0.527,-0.485 -0.505,-0.239 -1.163,-0.22 -1.676,0 -0.37,0.159 -0.235,0.448 -0.631,0.525 -0.799,0.156 -1.735,0.358 -2.599,0.335 -0.517,-0.013 -0.925,0.22 -1.071,-0.247 z m 7.499,-57.3721 c 1.122,-0.0594 1.342,-0.1203 2.341,0.4163 1.033,0.5539 1.249,0.9193 1.88,1.9202 0.326,0.314 0.651,0.6282 0.976,0.942 1.327,1.2808 1.953,3.0885 2.495,4.7824 0.089,1.839 0.484,5.0608 -0.434,6.7295 -0.458,0.833 -0.639,1.4759 -0.717,2.1827 -0.217,1.9776 -0.778,1.6688 -1.349,3.1664 -0.155,0.4062 -0.121,0.9116 -0.135,1.8758 -0.05,3.4427 -0.101,6.8859 -0.151,10.3285 -0.032,2.1997 -0.446,3.2492 -1.335,5.2803 -0.522,0.971 -0.796,1.597 -0.796,2.699 0,1.306 -0.267,1.908 -0.786,3.098 -0.316,0.724 -0.633,1.449 -0.949,2.174 -0.375,0.859 -0.719,1.167 -0.968,1.052 -0.249,-0.114 -0.403,-0.653 -0.399,-1.487 0.022,-4.203 0.044,-8.405 0.066,-12.608 0.048,-4.4684 0.096,-8.9368 0.144,-13.405 -0.056,-0.9596 -0.02,-1.1722 -0.65,-1.8839 -0.059,-1.4465 -0.338,-2.1008 -0.796,-3.478 -0.578,-1.0859 -0.512,-1.8781 -0.526,-3.1195 -0.036,-3.1055 -0.073,-6.2115 -0.109,-9.317 -0.022,-1.9057 0.409,-1.2542 2.198,-1.3487 z m -73.2361,53.4291 c -0.3456,-1.69 -0.1039,-3.033 -0.0133,-4.304 0.0432,-0.303 0.6545,-0.02 0.8206,-0.276 0.2478,-0.383 0.4716,-0.908 0.3078,-1.334 -0.0982,-0.255 -0.272,0.097 -0.4188,-0.134 -0.2027,-0.318 -0.1315,-0.832 0.1025,-1.128 0.3414,-0.433 1.0244,-0.321 1.2576,-0.821 0.3181,-0.682 -0.2278,-1.54 0,-2.257 0.0725,-0.228 0.6618,0.233 0.7181,0 0.2658,-1.097 -0.0648,-2.269 0.1026,-3.385 0.0436,-0.291 0.3005,-0.426 0.3343,-0.718 0.1423,-1.223 0.2164,-2.481 0,-3.6932 -0.1343,-0.7525 -0.7424,-1.2943 -0.8472,-2.0516 -0.3807,-2.7467 -0.4959,-5.7374 -0.1425,-8.4879 0.2745,-2.1353 1.6359,-5.4373 2.4354,-7.4364 0.5001,-1.2505 0.7453,-0.8605 1.1949,-2.1304 0.1373,-0.3881 0.2326,-0.8404 0.1026,-1.231 -0.162,-0.4865 -0.7362,-0.8584 -0.6554,-1.3649 0.0991,-0.6205 0.8622,-0.6049 1.0657,-1.1997 0.2766,-0.8086 -0.2801,-1.757 0,-2.5645 0.3296,-0.9501 1.4653,-1.4958 1.7439,-2.462 0.266,-0.922 -0.0191,-2.395 0.2413,-3.3188 0.5148,-1.8251 1.1332,-3.004 2.0156,-4.6827 0.521,-0.9912 1.4264,-1.8287 1.8332,-2.8724 0.3922,-1.0056 0.3522,-2.3369 0.5262,-3.18 -0.6411,-0.8014 -2.1123,0.3171 -3.0775,-0.0314 -0.4897,-0.1767 -0.488,-0.9774 -0.9727,-1.1683 -1.0381,-0.0706 -2.0307,-0.0945 -2.7697,0.4598 -0.9914,0.7434 -0.9993,1.6149 -1.3868,2.7915 -0.5791,1.7581 -0.1377,3.7333 -0.8605,5.4369 -0.2858,0.6737 -1.4518,0.8631 -2.0118,1.3336 -0.2963,0.2488 -0.434,0.5082 -0.8207,0.5082 -0.3869,0 -0.7241,-0.1336 -0.8207,-0.5082 -0.1964,-0.7613 0.0383,-1.5738 0,-2.3594 -0.0301,-0.6184 -0.3613,-1.2474 -0.2051,-1.8465 0.0814,-0.3121 0.7957,-0.1912 0.8207,-0.5129 0.3067,-3.5246 -0.1149,-7.0265 -0.0611,-10.3945 0.0189,-1.1825 0.3327,-1.0072 1.4968,-1.019 1.9607,-0.0202 5.0683,-0.005 7.322,-0.0164 3.9541,-0.0198 7.9181,-0.1674 11.8611,-0.0594 0.587,0.0425 1.351,0.2604 1.392,0.8472 0.083,1.1866 -0.712,2.3308 -1.262,3.3853 -0.291,0.5573 -0.941,0.9216 -1.155,1.5121 -0.364,1.0009 0.031,2.1869 -0.353,3.1801 -0.235,0.6095 -1.43,0.7222 -1.659,1.3336 -0.325,0.8649 0.236,1.9102 -0.103,2.7697 -0.168,0.4268 -1.078,0.183 -1.231,0.6155 -0.516,1.4638 -0.213,3.1172 -0.615,4.6163 -0.223,0.8275 -0.85,1.4077 -0.963,2.2568 -0.308,2.3048 0.2,4.6593 0,6.9757 -0.044,0.5029 -0.575,0.8499 -0.719,1.3336 -0.338,1.1375 -0.551,2.3668 -0.941,3.4878 -0.168,0.4842 -0.792,0.7353 -0.923,1.231 -0.1926,0.7272 0.29,1.563 0,2.2568 -0.3652,0.8724 -1.6504,1.2291 -1.8466,2.1543 -0.5538,2.6109 0.3231,5.3638 -0.0845,8.0014 -0.1823,1.1804 -1.2227,2.1078 -1.4362,3.2827 -0.2751,1.5138 0.1988,3.3036 -0.1786,4.7946 -0.364,1.44 -1.4077,2.688 -1.931,4.077 -0.1225,1.363 -1.7557,2.614 -0.8653,3.644 1.0742,0.142 2.8568,0.361 4.1033,-0.206 0.5738,-0.26 -0.0907,-1.464 0.4104,-1.846 1.5317,-1.17 3.2895,-1.592 5.0085,-2.462 0.983,-0.498 2.219,-0.973 3.096,-1.641 0.445,-0.34 0.496,-1.147 1.025,-1.334 0.319,-0.113 0.385,0.661 0.718,0.718 1.146,0.195 2.14,-0.295 3.265,0 0.45,0.118 0.436,0.723 0.553,1.173 0.105,0.403 0.287,0.837 0.063,1.186 -0.135,0.21 -0.624,-0.024 -0.719,0.206 -0.195,0.474 -0.119,1.04 0,1.538 0.094,0.388 0.449,0.629 0.482,1.026 0.176,2.079 0.234,4.185 0,6.258 -0.049,0.435 -0.296,0.891 -0.731,0.936 -2.959,-0.136 -5.694,0.081 -8.657,0.09 -0.305,-0.027 -0.13,-0.567 -0.411,-0.687 -0.764,-0.328 -2.1417,-0.373 -2.9526,-0.187 -0.9432,0.216 -1.0221,0.992 -1.9709,1.181 -1.7099,0.342 -3.6862,0.007 -5.4104,0.268 -0.6094,0.092 -1.0748,0.609 -1.6726,0.758 -0.8294,0.207 -2.1373,0.428 -2.5646,-0.312 z m -45.6942,4.818 c -1.2792,0.449 -2.7716,10e-4 -4.1274,0.03 -0.4179,0.009 -1.0981,0.337 -1.4995,0.219 -0.4382,-0.128 -1.1287,-0.997 -0.8548,-1.363 1.0701,-1.427 3.1797,-1.605 4.1567,-3.096 0.5746,-0.877 0.0364,-2.058 0.2833,-3.077 0.0758,-0.313 0.6242,-0.284 0.7864,-0.562 0.1318,-0.226 0.1705,-0.587 0,-0.786 -0.3896,-0.455 -0.6363,0.499 -0.79,-0.863 -0.1376,-1.218 -0.1665,-2.455 -0.0535,-3.672 0.071,-0.775 0.6344,-0.611 0.7409,-1.02 0.1983,-0.761 -0.2143,-1.325 -0.01,-2.085 0.0916,-0.341 0.7237,-0.255 0.8988,-0.562 0.1669,-0.292 0.1867,-0.73 0,-1.011 -0.3827,-0.574 -1.4229,-0.565 -1.5388,-1.245 -0.2132,-1.251 -0.099,-2.594 -0.077,-3.8352 0.0235,-1.3219 -0.0673,-2.6476 0.043,-3.9945 0.0203,-0.2498 0.586,-0.2392 0.674,-0.4741 0.1707,-0.4556 0.0627,-0.9778 0,-1.4605 -0.0502,-0.3872 0.0688,-1.1794 0.0391,-1.5688 -0.0455,-0.5983 -0.3026,-0.8205 -0.0245,-1.3521 0.1939,-0.3704 0.826,-0.1474 0.8842,-0.5617 0.3073,-2.1879 -0.3487,-4.4312 -0.1124,-6.6282 0.0401,-0.3722 0.6261,-0.313 0.7246,-0.6741 0.1586,-0.5825 0.2076,-1.252 -0.0505,-1.7975 -0.1217,-0.2575 -0.6959,-0.2585 -0.7181,-0.5426 -0.2523,-3.2104 0.1867,-6.2455 -0.0683,-9.4559 -0.0239,-0.3007 -0.7623,0.121 -0.776,-1.1837 -0.0152,-1.3674 -0.1412,-2.642 -0.1227,-3.6471 0.0143,-0.7712 1.6782,-0.792 1.6606,-1.5632 -0.0268,-1.1752 0.1584,-2.5015 -0.1124,-3.7073 -0.087,-0.3877 -0.5928,-0.3236 -0.7618,-0.6837 -0.1591,-0.3382 -0.009,-0.6755 0.1366,-1.0206 0.1748,-0.4153 0.6498,-0.6774 0.7621,-1.1139 0.2056,-0.7974 0.185,-1.6687 0,-2.4715 -0.0606,-0.2627 -0.514,-0.5194 -0.64,-0.7578 -0.2334,-0.4412 -0.1279,-0.8306 -0.4396,-1.2206 -0.2154,-0.2691 -0.8514,-0.1038 -1.1135,-0.3275 -0.6745,-0.576 -1.0634,-1.2164 -1.6291,-1.741 -0.5318,-0.4927 -1.2486,-0.864 -1.6583,-1.5894 -0.2633,-0.466 0.0434,-1.2721 0.4689,-1.5975 0.3268,-0.2498 0.8387,-0.1933 1.2017,0 0.2951,0.1574 0.2893,0.7843 0.6203,0.8302 1.448,0.2017 2.8852,-0.4357 4.313,-0.1219 0.6224,0.1369 0.6556,0.9231 1.2358,1.1864 0.3881,0.1763 1.0877,-0.1645 1.4409,0.0741 0.5184,0.3503 0.9582,1.0956 1.3669,1.5118 0.5253,0.5351 0.9782,0.7733 1.2465,1.531 0.3385,0.9567 0.1902,1.9383 0.1753,2.9334 -0.0131,0.878 0.1298,1.7672 0.0492,2.6591 -0.027,0.3 -0.6032,0.1588 -0.6838,0.4493 -0.1414,0.51 -0.0403,1.0809 0.2247,1.5386 0.1927,0.3333 0.7147,0.1636 0.8402,0.5274 0.2928,0.8502 0.3301,1.8924 0.1123,2.7648 -0.081,0.3248 -0.7079,0.1155 -0.7278,0.4494 -0.2523,4.2242 -0.3153,8.4851 0.1123,12.6947 0.0725,0.7156 1.2038,0.9704 1.2798,1.6852 0.424,3.9845 0.038,8.0175 -0.1269,12.0207 -0.0232,0.5694 -0.3054,1.285 -0.5374,1.7099 -0.2596,0.4749 -0.0982,0.9494 -0.0885,1.4735 0.0127,0.6739 -0.0679,1.4088 0.0347,2.0967 0.0586,0.3929 0.8579,0.7669 0.8304,1.1633 -0.0757,1.0921 0.0796,1.6083 0.1464,2.6851 0.0322,0.5183 -0.9118,0.8423 -1.2112,1.2663 -0.2154,0.305 -0.3464,0.896 -0.1709,1.226 0.1655,0.311 0.4628,0.153 0.5569,0.493 0.1331,0.481 0.1443,0.887 -0.0978,1.324 -0.1562,0.281 -0.7318,0.244 -0.7864,0.561 -0.153,0.889 0.3518,1.804 0.2247,2.697 -0.038,0.267 -0.6342,0.182 -0.6741,0.449 -0.1997,1.333 0.226,2.715 0,4.044 -0.0853,0.502 -0.8628,0.728 -0.8987,1.236 -0.0202,0.284 0.6522,0.086 0.7864,0.337 0.212,0.398 -0.3202,1.222 0.1123,1.348 1.4374,0.421 3.2162,0.312 4.6647,-0.068 0.8204,-0.216 1.1676,-1.366 2.0124,-1.446 1.0177,-0.096 1.7686,0.576 2.7745,0.756 1.3263,0.239 2.7772,0.282 4.0784,-0.068 0.7679,-0.207 1.214,-1.022 2.0027,-1.127 3.4141,-0.459 6.5825,-0.177 10.0274,-0.195 3.2573,-0.018 7.4244,-0.182 9.8426,0.082 1.3792,0.046 -0.1163,4.925 0.381,7.502 0.1082,0.561 0.5875,0.875 0.8755,1.394 0.4594,0.828 0.6375,1.249 -0.5553,1.244 -2.2437,-0.011 -4.514,0.162 -6.9484,0.059 -0.4783,-0.02 -0.4552,-0.942 -0.8988,-1.124 -0.4861,-0.199 -1.0623,0.236 -1.5728,0.113 -0.765,-0.185 -1.6272,-0.918 -2.408,-1.011 -2.082,-0.25 -4.1801,0.272 -6.2569,-0.015 -0.4714,-0.065 -0.5364,-0.977 -1.0111,-1.012 -4.8549,-0.355 -9.5068,0.155 -14.3665,-0.11 -1.041,-0.057 -1.1359,-0.42 -1.7966,-0.612 -0.9349,-0.27 -2.6068,-0.378 -3.4874,0.035 -1.6412,0.768 -1.636,2.221 -3.3458,2.822 z m 58.4423,-18.982 c -1.0142,-0.03 -1.0817,-1.659 -1.0011,-2.658 0.0824,-1.022 1.4171,-0.9684 1.8931,-1.8761 0.347,-0.6609 -0.173,-1.8228 0.223,-2.4559 0.426,-0.6818 1.581,-0.6565 2.007,-1.3382 0.244,-0.3896 -0.12,-1.1369 -0.109,-1.5963 0.027,-1.0877 0.271,-1.889 0.221,-2.9757 -0.026,-0.5653 -0.261,-1.5863 -0.154,-2.142 0.147,-0.759 0.599,-0.5748 0.823,-1.3149 0.279,-0.9257 -0.185,-1.979 0.111,-2.8993 0.118,-0.364 1.072,-0.1813 1.004,-0.5576 -0.083,-0.4579 -0.918,-0.2114 -1.001,-0.6691 -0.253,-1.3936 -0.267,-3.0334 0.109,-4.3988 0.235,-0.8541 1.204,-1.5076 1.45,-2.3592 0.257,-0.8923 -0.287,-1.9042 0,-2.7878 0.194,-0.5999 1.185,-0.7266 1.338,-1.3381 0.36,-1.4427 0.039,-3.2123 0.414,-4.651 0.197,-0.755 0.591,-1.6108 1.074,-2.084 0.29,-0.2841 0.551,-0.4905 0.687,-0.9382 0.186,-0.6132 -0.271,-1.1289 -0.166,-1.7612 0.093,-0.5594 0.52,-0.9185 0.791,-1.416 0.343,-0.6282 0.486,-1.4241 0.815,-2.0589 0.48,-0.9281 1.126,-1.7045 1.47,-2.6919 0.257,-0.7362 -0.295,-1.937 0.034,-2.6445 0.466,-1.0018 1.67,-0.9771 2.129,-1.9823 0.371,-0.812 -0.278,-1.8733 0.112,-2.6763 0.283,-0.585 0.922,-0.8433 1.571,-0.8691 0.476,-0.0189 1.054,0.3105 1.216,0.7575 0.319,0.8759 0.031,1.9284 0.392,2.7879 0.633,1.5115 1.731,2.4024 2.34,3.9241 0.317,0.7934 -0.026,1.9343 0.168,2.7666 0.264,1.1315 0.449,2.2726 0.823,3.3745 0.464,1.3722 1.129,2.7032 1.519,4.0968 0.345,1.2342 0.428,2.5733 0.694,3.8295 0.195,0.9166 0.551,1.7582 0.867,2.6383 0.135,0.3779 0.592,0.282 0.701,0.669 0.191,0.6837 -0.383,1.4271 -0.223,2.1188 0.19,0.8265 1.08,1.664 1.226,2.4994 0.238,1.3545 -0.01,2.6501 0.023,4.025 0.03,1.2565 0.163,2.4234 0.328,3.628 0.102,0.7413 0.512,1.7983 0.531,2.337 0.069,2.007 0.158,3.9829 0.18,5.9922 0.034,2.9365 0.034,6.0758 -0.113,9.0068 -0.017,0.342 -0.425,0.517 -0.545,0.838 -0.455,1.215 -0.836,1.887 -1.128,3.152 -0.154,0.667 -0.159,1.385 -0.446,2.007 -0.176,0.382 -0.961,0.695 -1.094,1.094 -0.295,0.888 0.067,1.781 0.002,2.889 -0.055,0.954 -0.45,1.502 -0.847,2.389 -0.272,0.606 -0.714,1.551 -0.882,2.183 -0.183,0.686 0.146,1.438 -0.055,2.119 -0.106,0.356 -0.592,0.528 -0.669,0.892 -0.193,0.909 0.167,1.901 -0.112,2.787 -0.157,0.502 -0.266,0.429 -0.745,0.645 -0.34,0.152 -1.232,0.325 -1.283,-0.045 -0.216,-1.552 0.221,-2.63 -0.025,-4.179 -0.288,-1.812 -1.046,-2.914 -1.503,-4.692 -0.222,-0.863 0.175,-2.423 -0.235,-3.214 -0.738,-1.425 -3.101,-2.001 -2.998,-3.602 0.099,-1.549 1.025,-2.557 1.968,-3.817 0.644,-0.863 1.063,-2.272 1.464,-3.255 0.295,-0.7249 0.467,-1.574 0.48,-2.289 0.02,-1.0672 -0.269,-1.5317 -1.077,-2.1954 -1.688,-1.3871 -4.416,-2.6555 -6.517,-3.677 -0.308,-0.1497 -0.669,0.438 -0.669,0.7806 0,0.3427 0.401,0.6091 0.441,0.9488 0.117,0.9993 -0.488,2.0361 -0.055,2.9436 0.457,0.9589 2.26,1.238 1.993,2.2657 -0.18,0.6882 -0.349,0.9307 -0.933,1.2667 -0.354,0.204 -0.747,0.19 -1.161,0.209 -1.242,0.057 -2.519,-0.383 -3.719,-0.129 -1.303,0.276 -2.469,0.878 -3.673,1.478 -0.797,0.398 -1.612,0.923 -2.494,0.896 z m 10.984,-15.5902 c -0.011,-0.9837 -0.035,-1.9518 -0.033,-2.9193 0.002,-0.8543 0.023,-1.7084 0.09,-2.5729 0.044,-0.5617 0.558,-0.9903 0.624,-1.5495 0.111,-0.9247 -0.457,-2.0344 -0.198,-2.9236 0.104,-0.3609 1.019,10e-4 1.226,-0.3024 0.068,-0.0994 0.207,-0.6782 0.438,-1.1718 0.139,-0.2961 0.428,-0.5619 0.428,-0.6753 0,-0.1653 -0.011,-1.3392 0.113,-2.3563 0.072,-0.5904 0.163,-1.089 0.253,-1.0929 0.089,-0.004 0.179,0.4855 0.492,0.8927 0.36,0.4685 0.482,0.9332 0.797,1.4287 0.186,0.2924 0.386,0.6367 0.693,0.7559 0.391,0.152 0.859,-0.0619 1.248,0.0951 0.291,0.1173 0.362,0.574 0.624,0.7559 0.177,0.1231 0.583,-0.1113 0.624,0.1134 0.185,1.0125 0.025,2.3675 0.186,3.3846 0.039,0.2438 0.578,0.1304 0.59,0.3779 0.082,1.7713 0.123,3.5454 0.117,5.3196 -0.005,1.5655 -0.046,3.1315 -0.127,4.6958 -0.022,0.4458 -1.2,0.477 -1.529,0.2267 -0.636,-0.4846 -1.039,-1.047 -1.871,-1.2472 -0.347,-0.0832 -0.33,-0.6327 -0.659,-0.7423 -0.73,-0.2432 -1.651,-0.3038 -2.414,-0.3038 -0.498,0 -1.217,0.1758 -1.712,0.1133 -0.091,-0.0114 10e-4,-0.2022 0,-0.3023 z m 23.682,-30.5303 c 0.002,1.0191 0.111,2.1233 0.114,3.1904 0.005,1.3733 -0.095,2.6036 -0.09,3.9879 0.005,1.4741 0.115,3.1024 0.115,4.544 0,1.1718 -0.214,3.4242 -0.123,4.3975 0.116,1.2514 0.185,1.4682 1.896,1.4682 0.828,0 1.95,-0.8493 2.777,-1.7076 0.566,-0.5875 0.481,-1.6017 0.698,-2.0404 0.32,-0.6448 0.867,-1.2346 0.981,-1.9832 0.146,-0.9629 -0.206,-1.7578 0.436,-2.3737 0.253,-0.2436 0.492,-3.0084 0.492,-3.6168 0,-0.8672 -0.911,-2.1532 -1.958,-3.3038 -0.716,-0.7873 -1.575,-1.4939 -1.941,-2.0332 -0.671,-0.9874 -1.173,-1.4206 -1.968,-1.5982 -1.452,-0.3243 -1.43,-0.191 -1.429,1.0689 z m -7.666,54.2665 c -0.271,1.07 0.553,1.507 1.528,2.137 0.973,0.63 2.099,1.454 3.159,2.323 1.794,1.47 3.015,4.153 4.182,6.795 0.601,-0.639 0.177,-3.617 0.514,-5.401 0.072,-0.382 0.484,-0.658 0.523,-1.045 0.138,-1.387 0.172,-2.798 0,-4.181 -0.065,-0.516 -0.564,-0.893 -0.697,-1.394 -0.105,-0.393 -0.08,-0.822 0,-1.22 0.097,-0.486 0.478,-0.9 0.522,-1.394 0.132,-1.446 0.218,-2.92 0,-4.355 -0.082,-0.542 -0.912,-0.848 -0.871,-1.394 0.035,-0.452 1.012,-0.419 1.046,-0.871 0.095,-1.2952 -0.354,-2.5451 -0.514,-3.8332 -0.362,-2.8958 -0.573,-5.8086 -0.872,-8.7113 -0.107,-1.0461 -0.525,-2.0994 -0.348,-3.136 0.545,-1.414 1.043,-2.8665 1.568,-4.0072 0.256,-0.3362 0.594,0.3206 0.854,0.6535 0.849,1.0842 1.977,2.4259 2.221,3.7808 0.299,1.6613 -0.601,3.1311 -0.409,4.8084 0.056,0.4894 0.81,0.4016 0.984,0.8624 0.832,2.2014 1.508,4.4773 1.917,6.7948 0.466,2.6408 0.616,5.3338 0.697,8.0148 0.035,1.166 -0.015,2.366 -0.349,3.484 -0.476,1.597 -1.468,2.87 -1.96,4.413 -0.515,1.614 -0.681,2.096 1.027,2.095 0.676,-10e-4 1.465,0.026 1.987,0.287 1.398,0.699 1.975,2.311 3.302,3.136 0.287,0.178 0.662,0.425 1.057,0.646 1.882,1.054 2.089,0.326 2.481,-1.322 0.517,-2.179 0.648,-4.144 0.983,-6.293 0.171,-1.09 0.135,-2.208 0.183,-3.31 0.068,-1.571 0.186,-3.134 0.105,-4.705 -0.037,-0.733 -0.033,-1.535 -0.514,-2.09 -0.361,-0.417 -1.426,0.009 -1.568,-0.523 -0.195,-0.729 0.857,-1.336 0.871,-2.091 -0.288,-2.0369 -0.552,-3.8597 -0.586,-5.8674 -0.039,-2.3669 -0.546,-1.1755 -1.331,-2.1032 -0.474,-0.5606 -0.622,-1.0549 -0.696,-1.7856 -0.219,-2.1385 0.091,-4.5049 -0.236,-6.6293 -0.146,-0.95 -0.59,-1.887 -1.219,-2.6134 -0.228,-0.2633 -0.646,0.1284 -0.802,-0.1831 -0.261,-0.5219 0.541,-0.8792 0.235,-1.3762 -0.711,-1.1546 -2.199,-2.0359 -3.327,-2.7876 -0.338,-0.2253 -0.933,0.2874 -1.22,0 -0.287,-0.2874 -0.28,-1.1697 0,-1.4636 2.009,-0.2909 3.043,-1.2368 4.024,-2.3693 1.331,-1.5353 1.982,-3.2468 2.649,-5.1657 0.308,-0.8845 -0.086,-1.9182 0.017,-2.8487 0.191,-1.7219 1.094,-3.2856 0.793,-4.9917 -0.437,-2.4811 -1.66,-4.7045 -3.066,-6.7948 -0.781,-1.1604 -1.994,-2.1889 -3.258,-2.7876 -1.055,-0.4996 -1.938,-0.0816 -3.058,-0.4093 -1.297,-0.3794 -2.336,-1.1049 -3.659,-1.3761 -1.03,-0.2112 -2.111,0.2186 -3.136,-0.0177 -0.64,-0.1476 -0.744,-0.867 -1.394,-0.9668 -0.448,-0.069 -0.906,0.5802 -1.358,0.6184 -3.125,0.2647 -5.69,-0.3406 -8.8,0.0697 -0.464,0.0613 -0.332,0.5788 0.053,0.845 0.575,0.3979 1.449,0.2014 2.091,0.4791 1.152,0.4992 2.038,1.1703 2.892,2.0907 0.707,0.7612 0.995,1.6079 1.637,2.7876 0.264,0.4836 1.023,-0.445 1.569,-0.5227 0.689,-0.0984 1.168,-0.1169 1.603,0.427 0.391,0.4879 -0.418,1.1381 -0.879,1.559 -0.933,0.8504 -1.568,1.3008 -2.393,1.8654 -0.564,0.3865 -1.563,0.7335 -1.982,1.4885 -0.93,1.675 0.173,3.5799 0.531,5.4621 0.131,0.6865 0.281,1.3576 0.437,2.0385 0.506,2.2139 0.336,4.0565 0.644,6.3066 0.1,0.7273 0.616,1.361 0.697,2.0907 0.096,0.8674 -0.06,1.5064 0.07,2.3694 0.054,0.3674 0.355,0.7569 0.453,1.1151 0.434,1.5932 0.816,3.5942 0.871,5.2445 0.178,5.3982 -0.142,10.6867 0.13,16.0815 0.025,0.491 0.762,0.685 0.863,1.167 0.157,0.747 -0.341,1.605 -0.592,2.326 -1.031,2.952 -2.24,5.161 -2.876,7.674 z"
         style="fill:#0566b0;fill-opacity:1;fill-rule:evenodd;stroke:none"
         inkscape:connector-curvature="0" />
      <path
         id="path2896"
         d="m 470.83624,468.51789 -0.155,0 0,0.7736 0.216,0 c 0.153,0 0.271,-0.0328 0.35,-0.0999 0.079,-0.0671 0.119,-0.1643 0.119,-0.293 0,-0.1314 -0.042,-0.2273 -0.127,-0.2889 -0.085,-0.0616 -0.219,-0.0918 -0.403,-0.0918 z m 0.156,-0.638 c 0.465,0 0.819,0.0821 1.063,0.245 0.245,0.163 0.367,0.4012 0.367,0.7134 0,0.2095 -0.058,0.3889 -0.173,0.5422 -0.115,0.1521 -0.276,0.2643 -0.486,0.3369 l 0.715,1.4227 -1.12,0 -0.577,-1.2501 -0.1,0 0,1.2501 -1.026,0 0,-3.2602 1.337,0 z m 2.365,1.6978 c 0,-0.3204 -0.06,-0.6257 -0.181,-0.9174 -0.12,-0.2917 -0.291,-0.5491 -0.516,-0.7736 -0.233,-0.2328 -0.493,-0.4081 -0.78,-0.5272 -0.287,-0.1191 -0.593,-0.178 -0.919,-0.178 -0.33,0 -0.637,0.0575 -0.923,0.1739 -0.286,0.1163 -0.54,0.2889 -0.761,0.5149 -0.23,0.2327 -0.407,0.4956 -0.529,0.79 -0.123,0.2944 -0.185,0.5998 -0.185,0.9174 0,0.3191 0.06,0.6231 0.182,0.9119 0.122,0.2904 0.296,0.5492 0.523,0.7765 0.23,0.23 0.489,0.4053 0.778,0.5271 0.289,0.1219 0.593,0.1822 0.915,0.1822 0.318,0 0.623,-0.0617 0.915,-0.1849 0.293,-0.1219 0.557,-0.2998 0.792,-0.5326 0.226,-0.2218 0.399,-0.4752 0.515,-0.76 0.117,-0.2848 0.174,-0.5902 0.174,-0.9202 z m -2.404,-3.0137 c 0.413,0 0.805,0.0753 1.172,0.2245 0.367,0.1492 0.694,0.3683 0.98,0.6545 0.278,0.2807 0.492,0.6052 0.644,0.9736 0.15,0.3697 0.226,0.7572 0.226,1.1639 0,0.4121 -0.074,0.7969 -0.222,1.1571 -0.149,0.3601 -0.364,0.6778 -0.648,0.953 -0.297,0.2888 -0.631,0.5107 -1.002,0.6682 -0.371,0.1561 -0.756,0.2341 -1.15,0.2341 -0.399,0 -0.778,-0.0767 -1.14,-0.2286 -0.36,-0.1521 -0.686,-0.3739 -0.977,-0.6655 -0.289,-0.2862 -0.51,-0.6121 -0.662,-0.975 -0.152,-0.3642 -0.228,-0.7449 -0.228,-1.1433 0,-0.4039 0.076,-0.7901 0.23,-1.1599 0.154,-0.3682 0.376,-0.6996 0.668,-0.994 0.275,-0.2807 0.593,-0.4943 0.954,-0.6422 0.36,-0.1465 0.745,-0.2204 1.155,-0.2204 z"
         style="fill:#0566b0;fill-opacity:1;stroke:none"
         inkscape:connector-curvature="0" />
    </g>
  </g>
</svg>
