<svg width="296" height="291" viewBox="0 0 296 291" fill="none" xmlns="http://www.w3.org/2000/svg">
<g clip-path="url(#clip0_14_303)">
<rect width="295.142" height="291" rx="36.5907" fill="#FFE791"/>
<path d="M94.3131 234.929C94.3131 239.971 100.955 244.059 109.149 244.059C117.343 244.059 121.195 239.971 121.195 234.929C121.195 229.887 117.343 225.799 109.149 225.799C100.955 225.799 94.3131 229.887 94.3131 234.929Z" fill="#FF6332"/>
<path d="M59.8227 234.041C59.8227 242.655 44.576 257.119 29.3901 257.119C14.2041 257.119 9.99988 242.655 9.99988 234.041C9.99988 225.427 17.1402 218.444 32.3261 218.444C47.5121 218.444 59.8227 225.427 59.8227 234.041Z" fill="#FF6332"/>
<path d="M108.388 227.955L36.1106 226.687L20.3871 299.344H124.745L108.388 227.955Z" fill="#FF6332"/>
<path d="M112.066 244.312V244.312C107.039 245.904 101.756 246.531 96.4966 246.161L95.4544 246.087" stroke="black" stroke-width="2.78965"/>
<path d="M72.1225 234.929L68.9379 300.739H75.3071L72.1225 234.929Z" fill="black"/>
<path d="M37.5056 226.687C37.5056 231.729 37.651 235.69 29.0709 235.69C20.4907 235.69 16.4564 232.616 16.4564 227.574C16.4564 222.532 20.4907 218.444 29.0709 218.444C37.651 218.444 37.5056 221.644 37.5056 226.687Z" fill="#F23A00"/>
<path d="M36.6194 232.193V232.193C34.7384 233.937 33.5336 236.288 33.2173 238.834L30.8429 257.942" stroke="black" stroke-width="2.78965"/>
<path d="M110.67 244.185C110.67 244.956 111.422 245.707 112.192 245.707C112.962 245.707 113.714 244.956 113.714 244.185C113.714 243.415 112.962 242.79 112.192 242.79C111.422 242.79 110.67 243.415 110.67 244.185Z" fill="black"/>
<path d="M94.0594 245.961C94.0594 246.731 94.6839 247.482 95.4542 247.482C96.2246 247.482 96.5955 246.731 96.5955 245.961C96.5955 245.19 96.2246 244.693 95.4542 244.693C94.6839 244.693 94.0594 245.19 94.0594 245.961Z" fill="black"/>
<path d="M29.3902 257.753C29.3902 258.594 30.0147 259.275 30.785 259.275C31.5554 259.275 32.3066 258.467 32.3066 257.626C32.3066 256.786 31.5554 256.232 30.785 256.232C30.0147 256.232 29.3902 256.913 29.3902 257.753Z" fill="black"/>
<path d="M18.9921 205.384C18.9921 234.867 42.8929 238.479 72.3759 238.479C101.859 238.479 125.76 234.867 125.76 205.384C125.76 175.901 101.859 152 72.3759 152C42.8929 152 18.9921 175.901 18.9921 205.384Z" fill="#96FFAD"/>
<circle cx="14.2019" cy="14.2019" r="14.2019" transform="matrix(-1 0 0 1 133.115 163.666)" fill="#70E67C"/>
<circle cx="14.2019" cy="14.2019" r="14.2019" transform="matrix(-1 0 0 1 38.5199 163.666)" fill="#70E67C"/>
<path d="M20.9793 189.66C24.1449 178.758 30.9312 169.166 40.2923 162.361C49.6534 155.556 61.0697 151.916 72.7818 152.002C84.4938 152.088 95.8516 155.895 105.105 162.837C114.358 169.779 120.992 179.47 123.986 190.416L115.307 193.683C108.519 196.237 101.518 198.189 94.3874 199.515L91.3438 200.081C78.8084 202.412 65.9484 202.389 53.4215 200.013L52.7625 199.888C44.4697 198.315 36.3543 195.919 28.5366 192.736L20.9793 189.66Z" fill="#70E67C"/>
<path d="M106.993 177.868C106.993 180.669 108.972 182.94 117.296 182.94C125.62 182.94 127.789 180.669 127.789 177.868C127.789 175.066 125.62 172.796 117.296 172.796C108.972 172.796 106.993 175.066 106.993 177.868Z" fill="black"/>
<path d="M17.7243 177.868C17.7243 180.669 19.7026 182.94 28.0267 182.94C36.3508 182.94 38.5199 180.669 38.5199 177.868C38.5199 175.066 36.3508 172.796 28.0267 172.796C19.7026 172.796 17.7243 175.066 17.7243 177.868Z" fill="black"/>
<path d="M111.558 194.869V194.869C87.9088 207.835 59.3082 207.967 35.54 195.22L33.448 194.098" stroke="black" stroke-width="6.34012"/>
<circle cx="9.63699" cy="9.63699" r="9.63699" transform="matrix(-1 0 0 1 40.295 182.94)" fill="#FF6332"/>
<circle cx="9.63699" cy="9.63699" r="9.63699" transform="matrix(-1 0 0 1 123.985 182.94)" fill="#FF6332"/>
<circle cx="1.64843" cy="1.64843" r="1.64843" transform="matrix(-1 0 0 1 75.7998 188.773)" fill="black"/>
<circle cx="1.64843" cy="1.64843" r="1.64843" transform="matrix(-1 0 0 1 75.7998 188.773)" fill="black"/>
<circle cx="1.64843" cy="1.64843" r="1.64843" transform="matrix(-1 0 0 1 75.7998 188.773)" fill="black"/>
<circle cx="1.64843" cy="1.64843" r="1.64843" transform="matrix(-1 0 0 1 68.4449 188.773)" fill="black"/>
<circle cx="1.64843" cy="1.64843" r="1.64843" transform="matrix(-1 0 0 1 68.4449 188.773)" fill="black"/>
<circle cx="1.64843" cy="1.64843" r="1.64843" transform="matrix(-1 0 0 1 68.4449 188.773)" fill="black"/>
<path d="M224.114 112.272C224.114 124.573 212.067 134.545 188.951 134.545C165.835 134.545 154.633 124.573 154.633 112.272C154.633 99.9717 165.835 90 188.951 90C212.067 90 224.114 99.9717 224.114 112.272Z" fill="#092D71"/>
<path d="M228.399 136.024L228.448 131.248C228.489 127.402 227.045 123.688 224.419 120.878L219.923 116.069L210.029 128.705L218.526 130.564C222.278 131.385 225.709 133.282 228.399 136.024Z" fill="#092D71"/>
<circle cx="177.332" cy="112.486" r="3.94296" fill="#FF6332"/>
<circle cx="189.693" cy="112.486" r="3.94296" fill="#FF6332"/>
<circle cx="202.055" cy="112.486" r="3.94296" fill="#FF6332"/>
<path d="M64.6787 63.9665C64.6787 84.3825 84.6747 100.933 123.041 100.933C161.408 100.933 180 84.3825 180 63.9665C180 43.5505 161.408 27 123.041 27C84.6747 27 64.6787 43.5505 64.6787 63.9665Z" fill="#FF3098"/>
<path d="M59.0243 108.202L58.9238 98.5801C58.8429 90.8314 61.7506 83.3495 67.0426 77.6888L76.1004 68L96.0324 93.4566L78.9133 97.2023C71.3548 98.8561 64.4428 102.679 59.0243 108.202Z" fill="#FF3098"/>
<circle cx="6.5443" cy="6.5443" r="6.5443" transform="matrix(-1 0 0 1 148.87 57.776)" fill="#BD00B6"/>
<circle cx="6.5443" cy="6.5443" r="6.5443" transform="matrix(-1 0 0 1 128.353 57.776)" fill="#BD00B6"/>
<circle cx="6.5443" cy="6.5443" r="6.5443" transform="matrix(-1 0 0 1 107.836 57.776)" fill="#BD00B6"/>
<path d="M191.741 227.086L262.927 225.837L278.413 297.397H175.631L191.741 227.086Z" fill="black"/>
<rect x="182.665" y="230.696" width="89.175" height="13.4074" rx="6.70371" fill="#9D0000"/>
<rect x="182.821" y="237.4" width="89.175" height="13.4074" rx="6.70371" fill="#9D0000"/>
<rect x="252.821" y="238.959" width="19.0198" height="3.58571" rx="1.79285" fill="black"/>
<rect x="195.102" y="237.608" width="53.2996" height="12.9006" rx="6.45028" transform="rotate(90.9252 195.102 237.608)" fill="#9D0000"/>
<rect x="207.962" y="237.764" width="53.2996" height="12.9006" rx="6.45028" transform="rotate(90.9252 207.962 237.764)" fill="#9D0000"/>
<path d="M279.786 204.856C279.786 233.893 256.246 237.451 227.209 237.451C198.171 237.451 174.631 233.893 174.631 204.856C174.631 175.818 198.171 152.278 227.209 152.278C256.246 152.278 279.786 175.818 279.786 204.856Z" fill="black"/>
<path d="M182.826 143.571C184.252 140.528 188.367 140.019 190.491 142.623L204.024 159.216L174.788 206.999L173.975 187.691C173.334 172.486 176.371 157.352 182.826 143.571Z" fill="black"/>
<path d="M270.048 142.522C268.629 139.831 264.973 139.357 262.915 141.598L246.741 159.216L279.65 206.999L280.483 189.42C281.255 173.136 277.652 156.942 270.048 142.522Z" fill="black"/>
<path d="M185.971 152.535C186.337 150.883 188.447 150.381 189.518 151.691L196.229 159.899C197.011 160.855 196.764 162.281 195.707 162.918L185.857 168.857C184.331 169.777 182.446 168.421 182.832 166.682L185.971 152.535Z" fill="#9D0000"/>
<path d="M267.736 150.837C267.366 149.197 265.275 148.695 264.2 149.988L257.301 158.292C256.504 159.251 256.754 160.694 257.825 161.33L267.951 167.338C269.48 168.246 271.353 166.884 270.962 165.15L267.736 150.837Z" fill="#9D0000"/>
<path d="M214.001 198.892C210.805 204.817 206.289 208.87 196.774 208.87C187.26 208.87 181.886 202.946 179.547 198.892C182.899 194.449 187.26 188.915 196.774 188.915C206.289 188.915 209.792 192.812 214.001 198.892Z" fill="white"/>
<path d="M272.932 198.892C269.736 204.817 265.219 208.87 255.705 208.87C246.19 208.87 240.816 202.946 238.478 198.892C241.829 194.449 246.19 188.915 255.705 188.915C265.219 188.915 268.722 192.812 272.932 198.892Z" fill="white"/>
<rect x="190.616" y="189.382" width="12.472" height="19.0198" rx="6.08011" fill="black"/>
<rect x="249.547" y="189.382" width="12.472" height="19.0198" rx="6.08011" fill="black"/>
</g>
<defs>
<clipPath id="clip0_14_303">
<rect width="295.142" height="291" rx="36.5907" fill="white"/>
</clipPath>
</defs>
</svg>
