<svg width="296" height="291" viewBox="0 0 296 291" fill="none" xmlns="http://www.w3.org/2000/svg">
<g clip-path="url(#clip0_14_194)">
<rect width="295.142" height="291" rx="36.5907" fill="#ABC894"/>
<path d="M267.627 166.477C267.627 170.672 262.101 174.072 255.284 174.072C248.468 174.072 245.263 170.672 245.263 166.477C245.263 162.282 248.468 158.881 255.284 158.881C262.101 158.881 267.627 162.282 267.627 166.477Z" fill="#FF6332"/>
<path d="M255.917 160.675L316.048 159.62L329.129 220.067H242.309L255.917 160.675Z" fill="#FF6332"/>
<path d="M252.858 174.283V174.283C257.04 175.608 261.435 176.129 265.81 175.821L266.677 175.76" stroke="black" stroke-width="2.32083"/>
<path d="M286.088 166.477L288.737 221.227H283.439L286.088 166.477Z" fill="black"/>
<path d="M254.019 174.178C254.019 174.819 253.393 175.444 252.753 175.444C252.112 175.444 251.487 174.819 251.487 174.178C251.487 173.537 252.112 173.017 252.753 173.017C253.393 173.017 254.019 173.537 254.019 174.178Z" fill="black"/>
<path d="M267.838 175.655C267.838 176.296 267.318 176.921 266.678 176.921C266.037 176.921 265.728 176.296 265.728 175.655C265.728 175.014 266.037 174.6 266.678 174.6C267.318 174.6 267.838 175.014 267.838 175.655Z" fill="black"/>
<path d="M330.289 141.897C330.289 166.425 310.405 169.431 285.877 169.431C261.349 169.431 241.465 166.425 241.465 141.897C241.465 117.369 261.349 97.4851 285.877 97.4851C310.405 97.4851 330.289 117.369 330.289 141.897Z" fill="#96FFAD"/>
<circle cx="247.162" cy="119.005" r="11.8151" fill="#70E67C"/>
<path d="M328.636 128.816C326.003 119.746 320.357 111.766 312.569 106.105C304.781 100.443 295.283 97.4148 285.54 97.4863C275.796 97.5579 266.347 100.725 258.649 106.501C250.951 112.276 245.431 120.338 242.94 129.445L250.161 132.163C255.809 134.288 261.632 135.912 267.565 137.015L270.097 137.486C280.526 139.425 291.224 139.406 301.646 137.429L302.194 137.325C309.094 136.016 315.845 134.023 322.349 131.375L328.636 128.816Z" fill="#70E67C"/>
<path d="M257.078 119.005C257.078 121.336 255.432 123.225 248.507 123.225C241.582 123.225 239.777 121.336 239.777 119.005C239.777 116.675 241.582 114.786 248.507 114.786C255.432 114.786 257.078 116.675 257.078 119.005Z" fill="black"/>
<path d="M253.28 133.15V133.15C272.955 143.936 296.749 144.046 316.522 133.442L318.263 132.508" stroke="black" stroke-width="5.27461"/>
<circle cx="250.959" cy="131.242" r="8.0174" fill="#FF6332"/>
<circle cx="284.4" cy="129.449" r="1.3714" fill="black"/>
<circle cx="284.4" cy="129.449" r="1.3714" fill="black"/>
<circle cx="284.4" cy="129.449" r="1.3714" fill="black"/>
<circle cx="290.519" cy="129.449" r="1.3714" fill="black"/>
<circle cx="290.519" cy="129.449" r="1.3714" fill="black"/>
<circle cx="290.519" cy="129.449" r="1.3714" fill="black"/>
<ellipse cx="146.943" cy="152.176" rx="15.2655" ry="14.5116" fill="#FFA3F6"/>
<ellipse cx="158.251" cy="171.022" rx="15.2655" ry="14.5116" fill="#FFA3F6"/>
<ellipse cx="236.086" cy="149.537" rx="15.2655" ry="14.5116" fill="#FFA3F6"/>
<ellipse cx="225.532" cy="169.703" rx="15.2655" ry="14.5116" fill="#FFA3F6"/>
<path d="M164.86 162.868L220.587 161.89L232.71 217.91H152.248L164.86 162.868Z" fill="#32813A"/>
<path d="M233.785 145.466C233.785 168.198 215.357 170.983 192.625 170.983C169.894 170.983 151.466 168.198 151.466 145.466C151.466 122.734 169.894 104.306 192.625 104.306C215.357 104.306 233.785 122.734 233.785 145.466Z" fill="#FFA800"/>
<path d="M144.736 141.622C143.827 127.849 148.584 115.879 159.005 107.51C171.421 97.5381 187.376 96.7147 193.111 103.856C198.847 110.997 193.431 124.871 181.015 134.843C171.592 142.411 157.69 143.304 144.736 141.622Z" fill="#32813A"/>
<path d="M241.179 136.01C230.373 139.273 220.001 136.448 209.935 129.719C197.94 121.701 191.398 110.442 195.322 104.571C199.246 98.7002 212.151 100.44 224.146 108.458C233.249 114.543 238.403 125.415 241.179 136.01Z" fill="#32813A"/>
<path d="M154.722 129.82L162.845 121.544C167.852 116.443 173.742 112.291 180.229 109.289L189.626 104.941" stroke="#2E7535" stroke-width="2.63848"/>
<path d="M227.051 127.298L222.614 122.44C217.509 116.85 211.379 112.292 204.556 109.012L199.524 106.593" stroke="#2E7535" stroke-width="2.63848"/>
<ellipse cx="154.764" cy="129.749" rx="1.41347" ry="1.31924" fill="#2E7535"/>
<path d="M228.17 127.11C228.17 127.839 227.58 128.429 226.851 128.429C226.123 128.429 225.532 127.839 225.532 127.11C225.532 126.382 226.311 125.885 227.04 125.885C227.768 125.885 228.17 126.382 228.17 127.11Z" fill="#2E7535"/>
<ellipse cx="189.253" cy="105.06" rx="1.41347" ry="1.31924" fill="#2E7535"/>
<circle cx="165.507" cy="148.689" r="3.10963" fill="black"/>
<circle cx="216.58" cy="148.689" r="3.10963" fill="black"/>
<path d="M184.258 159.586C184.258 158.731 185.107 158.135 185.911 158.425L187.631 159.045C190.08 159.927 192.76 159.927 195.209 159.045L196.929 158.425C197.733 158.135 198.582 158.731 198.582 159.586C198.582 160.085 198.282 160.534 197.821 160.726L197.131 161.013C193.476 162.534 189.364 162.534 185.709 161.013L185.019 160.726C184.558 160.534 184.258 160.085 184.258 159.586Z" fill="black"/>
<path d="M211.873 80.5103C212.789 79.3835 214.348 79.0137 215.672 79.6092L228.621 85.4308C229.954 86.0302 230.713 87.4561 230.465 88.8967L226.925 109.449C226.569 111.517 224.354 112.69 222.443 111.822L199.912 101.59C198 100.722 197.426 98.2811 198.75 96.6521L211.873 80.5103Z" fill="#C1702C"/>
<rect x="192.578" y="94.3177" width="43.1579" height="10.5539" rx="5.27695" transform="rotate(24.4068 192.578 94.3177)" fill="#B96C2B"/>
<path d="M135.187 161.588C135.41 160.933 136.191 160.664 136.77 161.042L140.106 163.215C141.979 164.435 144.127 165.166 146.354 165.342L150.323 165.657C151.013 165.711 151.467 166.401 151.244 167.056C151.092 167.501 150.665 167.794 150.195 167.774L147.746 167.67C144.097 167.516 140.569 166.314 137.583 164.209L135.58 162.797C135.196 162.526 135.036 162.034 135.187 161.588Z" fill="black"/>
<rect x="163.427" y="166.688" width="2.30104" height="20.9193" rx="1.15052" transform="rotate(13.2633 163.427 166.688)" fill="black"/>
<path d="M152.176 143.421L152.137 146.074C152.083 149.733 152.844 153.359 154.364 156.689L154.777 157.594C155.826 159.891 157.325 161.954 159.187 163.66L160.22 164.608C162.633 166.819 165.523 168.445 168.667 169.359L171.267 170.115" stroke="black" stroke-width="2.26155"/>
<path d="M153.351 143.507C153.351 144.183 152.656 144.826 152.032 144.826C151.407 144.826 150.995 144.277 150.995 143.601C150.995 142.924 151.502 142.47 152.126 142.47C152.751 142.47 153.351 142.83 153.351 143.507Z" fill="black"/>
<path d="M172.386 170.08C172.386 170.704 171.691 171.21 171.067 171.21C170.442 171.21 170.124 170.704 170.124 170.08C170.124 169.455 170.536 168.949 171.161 168.949C171.785 168.949 172.386 169.455 172.386 170.08Z" fill="black"/>
<path d="M75.5391 167.208L130.347 166.247L142.27 221.343H63.1351L75.5391 167.208Z" fill="black"/>
<rect x="68.5519" y="169.988" width="68.6585" height="10.3228" rx="5.16139" fill="#9D0000"/>
<rect x="68.6719" y="175.15" width="68.6585" height="10.3228" rx="5.16139" fill="#9D0000"/>
<rect x="122.567" y="176.35" width="14.6439" height="2.76074" rx="1.38037" fill="black"/>
<rect x="78.1268" y="175.31" width="41.0369" height="9.93252" rx="4.96626" transform="rotate(90.9252 78.1268 175.31)" fill="#9D0000"/>
<rect x="88.0282" y="175.43" width="41.0369" height="9.93252" rx="4.96626" transform="rotate(90.9252 88.0282 175.43)" fill="#9D0000"/>
<path d="M143.328 150.093C143.328 172.45 125.204 175.189 102.847 175.189C80.4897 175.189 62.3657 172.45 62.3657 150.093C62.3657 127.736 80.4897 109.612 102.847 109.612C125.204 109.612 143.328 127.736 143.328 150.093Z" fill="black"/>
<path d="M68.6754 102.908C69.773 100.565 72.9415 100.173 74.5768 102.178L84.9963 114.953L62.4865 151.743L61.8604 136.877C61.3673 125.171 63.7051 113.518 68.6754 102.908Z" fill="black"/>
<path d="M135.83 102.1C134.738 100.028 131.922 99.6637 130.338 101.389L117.885 114.953L143.223 151.743L143.865 138.208C144.459 125.671 141.685 113.203 135.83 102.1Z" fill="black"/>
<path d="M71.0965 109.81C71.3786 108.538 73.0032 108.151 73.8279 109.16L78.9951 115.48C79.5965 116.215 79.4065 117.313 78.5928 117.804L71.0092 122.376C69.8344 123.085 68.383 122.041 68.6801 120.702L71.0965 109.81Z" fill="#9D0000"/>
<path d="M134.05 108.503C133.765 107.24 132.155 106.853 131.327 107.849L126.015 114.242C125.402 114.98 125.594 116.092 126.419 116.581L134.215 121.207C135.393 121.906 136.835 120.858 136.534 119.522L134.05 108.503Z" fill="#9D0000"/>
<path d="M92.6783 145.502C90.2176 150.063 86.74 153.184 79.4147 153.184C72.0894 153.184 67.9516 148.622 66.1511 145.502C68.7318 142.081 72.0894 137.82 79.4147 137.82C86.74 137.82 89.4374 140.82 92.6783 145.502Z" fill="white"/>
<path d="M138.05 145.502C135.59 150.063 132.112 153.184 124.787 153.184C117.462 153.184 113.324 148.622 111.523 145.502C114.104 142.081 117.462 137.82 124.787 137.82C132.112 137.82 134.81 140.82 138.05 145.502Z" fill="white"/>
<rect x="74.6737" y="138.18" width="9.60258" height="14.6439" rx="4.68126" fill="black"/>
<rect x="120.046" y="138.18" width="9.60258" height="14.6439" rx="4.68126" fill="black"/>
<rect x="52.0162" y="217.523" width="247.35" height="73.4775" fill="#855307"/>
<path d="M37.83 210.248C37.83 206.23 41.0871 202.973 45.105 202.973H299.366V217.523H45.105C41.0871 217.523 37.83 214.266 37.83 210.248Z" fill="#311E01"/>
<path d="M270.746 47.598C270.746 60.6266 257.985 71.1884 233.501 71.1884C209.017 71.1884 197.153 60.6266 197.153 47.598C197.153 34.5694 209.017 24.0076 233.501 24.0076C257.985 24.0076 270.746 34.5694 270.746 47.598Z" fill="#2E7535"/>
<path d="M274.696 71.4141L269.112 72.856C264.615 74.0172 259.843 73.4011 255.788 71.1356L248.848 67.2581L260.795 52L265.436 61.4227C267.485 65.583 270.703 69.0553 274.696 71.4141Z" fill="#2E7535"/>
<circle cx="221.194" cy="47.8235" r="4.1763" fill="#FFA3F6"/>
<circle cx="234.288" cy="47.8235" r="4.1763" fill="#FFA3F6"/>
<circle cx="247.381" cy="47.8235" r="4.1763" fill="#FFA3F6"/>
<path d="M182.355 47.598C182.355 60.6266 169.594 71.1884 145.11 71.1884C120.626 71.1884 108.761 60.6266 108.761 47.598C108.761 34.5694 120.626 24.0076 145.11 24.0076C169.594 24.0076 182.355 34.5694 182.355 47.598Z" fill="#05A3FF"/>
<path d="M186.305 71.4141L180.721 72.856C176.223 74.0172 171.452 73.4011 167.397 71.1356L160.457 67.2581L172.404 52L177.045 61.4227C179.094 65.583 182.312 69.0553 186.305 71.4141Z" fill="#05A3FF"/>
<circle cx="132.803" cy="47.8235" r="4.1763" fill="#052155"/>
<circle cx="145.896" cy="47.8235" r="4.1763" fill="#052155"/>
<circle cx="158.99" cy="47.8235" r="4.1763" fill="#052155"/>
<path d="M93.9631 47.598C93.9631 60.6266 81.2025 71.1884 56.7187 71.1884C32.2348 71.1884 20.37 60.6266 20.37 47.598C20.37 34.5694 32.2348 24.0076 56.7187 24.0076C81.2025 24.0076 93.9631 34.5694 93.9631 47.598Z" fill="#6F16FF"/>
<path d="M97.9137 71.4141L92.3294 72.856C87.8322 74.0172 83.0606 73.4011 79.0059 71.1356L72.0659 67.2581L84.0127 52L88.6536 61.4227C90.7027 65.583 93.9208 69.0553 97.9137 71.4141Z" fill="#6F16FF"/>
<circle cx="44.4119" cy="47.8235" r="4.1763" fill="#FFF616"/>
<circle cx="57.5052" cy="47.8235" r="4.1763" fill="#FFF616"/>
<circle cx="70.5987" cy="47.8235" r="4.1763" fill="#FFF616"/>
</g>
<defs>
<clipPath id="clip0_14_194">
<rect width="295.142" height="291" rx="36.5907" fill="white"/>
</clipPath>
</defs>
</svg>
