<svg width="296" height="291" viewBox="0 0 296 291" fill="none" xmlns="http://www.w3.org/2000/svg">
<g clip-path="url(#clip0_9_34)">
<rect width="295.142" height="291" rx="36.5907" fill="#FFA3F6"/>
<path d="M159.48 204.356C159.48 211.219 150.439 216.783 139.286 216.783C128.134 216.783 122.89 211.219 122.89 204.356C122.89 197.493 128.134 191.929 139.286 191.929C150.439 191.929 159.48 197.493 159.48 204.356Z" fill="#FF6332"/>
<path d="M206.427 203.148C206.427 214.872 227.18 234.56 247.851 234.56C268.521 234.56 274.244 214.872 274.244 203.148C274.244 191.423 264.525 181.918 243.854 181.918C223.184 181.918 206.427 191.423 206.427 203.148Z" fill="#FF6332"/>
<path d="M140.322 194.863L238.703 193.137L260.105 292.036H118.057L140.322 194.863Z" fill="#FF6332"/>
<path d="M135.317 217.128V217.128C142.159 219.295 149.349 220.149 156.508 219.644L157.927 219.545" stroke="black" stroke-width="3.79715"/>
<path d="M189.685 204.356L194.02 293.934H185.35L189.685 204.356Z" fill="black"/>
<path d="M236.804 193.137C236.804 200 236.606 205.391 248.285 205.391C259.964 205.391 265.456 201.208 265.456 194.345C265.456 187.482 259.964 181.918 248.285 181.918C236.606 181.918 236.804 186.274 236.804 193.137Z" fill="#F23A00"/>
<path d="M238.01 200.632V200.632C240.571 203.006 242.211 206.207 242.641 209.671L245.873 235.681" stroke="black" stroke-width="3.79715"/>
<path d="M137.215 216.955C137.215 218.004 136.193 219.027 135.144 219.027C134.096 219.027 133.073 218.004 133.073 216.955C133.073 215.907 134.096 215.057 135.144 215.057C136.193 215.057 137.215 215.907 137.215 216.955Z" fill="black"/>
<path d="M159.826 219.372C159.826 220.42 158.976 221.443 157.927 221.443C156.879 221.443 156.374 220.42 156.374 219.372C156.374 218.323 156.879 217.646 157.927 217.646C158.976 217.646 159.826 218.323 159.826 219.372Z" fill="black"/>
<path d="M247.851 235.423C247.851 236.567 247.001 237.495 245.952 237.495C244.903 237.495 243.881 236.395 243.881 235.251C243.881 234.107 244.903 233.352 245.952 233.352C247.001 233.352 247.851 234.28 247.851 235.423Z" fill="black"/>
<path d="M262.004 164.141C262.004 204.272 229.471 209.189 189.34 209.189C149.209 209.189 116.676 204.272 116.676 164.141C116.676 124.01 149.209 91.4769 189.34 91.4769C229.471 91.4769 262.004 124.01 262.004 164.141Z" fill="#96FFAD"/>
<circle cx="125.996" cy="126.687" r="19.331" fill="#70E67C"/>
<circle cx="254.755" cy="126.687" r="19.331" fill="#70E67C"/>
<path d="M259.299 142.738C254.99 127.899 245.753 114.842 233.011 105.579C220.269 96.3165 204.73 91.3619 188.788 91.479C172.846 91.596 157.386 96.7784 144.791 106.227C132.197 115.676 123.166 128.867 119.09 143.767L130.904 148.213C140.144 151.691 149.673 154.347 159.379 156.152L163.522 156.923C180.585 160.096 198.089 160.064 215.14 156.83L216.037 156.66C227.325 154.518 238.371 151.257 249.012 146.925L259.299 142.738Z" fill="#70E67C"/>
<path d="M142.221 126.687C142.221 130.5 139.528 133.591 128.197 133.591C116.867 133.591 113.915 130.5 113.915 126.687C113.915 122.874 116.867 119.783 128.197 119.783C139.528 119.783 142.221 122.874 142.221 126.687Z" fill="black"/>
<path d="M263.73 126.687C263.73 130.5 261.037 133.591 249.706 133.591C238.376 133.591 235.424 130.5 235.424 126.687C235.424 122.874 238.376 119.783 249.706 119.783C261.037 119.783 263.73 122.874 263.73 126.687Z" fill="black"/>
<path d="M136.007 149.829V149.829C168.198 167.476 207.128 167.656 239.48 150.306L242.327 148.779" stroke="black" stroke-width="8.62989"/>
<circle cx="246.125" cy="146.708" r="13.1174" fill="#FF6332"/>
<circle cx="132.21" cy="146.708" r="13.1174" fill="#FF6332"/>
<circle cx="186.923" cy="143.774" r="2.24377" fill="black"/>
<circle cx="186.923" cy="143.774" r="2.24377" fill="black"/>
<circle cx="186.923" cy="143.774" r="2.24377" fill="black"/>
<circle cx="196.934" cy="143.774" r="2.24377" fill="black"/>
<circle cx="196.934" cy="143.774" r="2.24377" fill="black"/>
<circle cx="196.934" cy="143.774" r="2.24377" fill="black"/>
<ellipse cx="86.9892" cy="194.69" rx="13.4626" ry="12.7722" fill="#FF3098"/>
<path d="M42.8042 186.06C42.8042 183.773 44.6588 181.918 46.9465 181.918H86.9893V207.463H46.9465C44.6588 207.463 42.8042 205.608 42.8042 203.32V186.06Z" fill="#FF3098"/>
<rect x="74.5623" y="181.918" width="12.427" height="25.5445" fill="#FF3098"/>
<rect x="73.1814" y="179.157" width="4.14235" height="31.4128" rx="2.07117" fill="#BD00B6"/>
<rect x="55.5764" y="204.356" width="8.62989" height="101.488" rx="2.41637" fill="#BD00B6"/>
<circle cx="59.8912" cy="206.6" r="6.38612" fill="#BD00B6"/>
<circle cx="82.6742" cy="186.923" r="2.58897" fill="#BD00B6"/>
<circle cx="82.6742" cy="194.518" r="2.58897" fill="#BD00B6"/>
<circle cx="82.6742" cy="202.112" r="2.58897" fill="#BD00B6"/>
<circle cx="89.5782" cy="190.375" r="2.58897" fill="#BD00B6"/>
<circle cx="89.5782" cy="198.315" r="2.58897" fill="#BD00B6"/>
<circle cx="89.5782" cy="183.126" r="2.58897" fill="#BD00B6"/>
<circle cx="89.5782" cy="205.564" r="2.58897" fill="#BD00B6"/>
<circle cx="96.482" cy="187.959" r="2.58897" fill="#BD00B6"/>
<circle cx="96.482" cy="194.863" r="2.58897" fill="#BD00B6"/>
<circle cx="96.482" cy="201.422" r="2.58897" fill="#BD00B6"/>
<circle cx="60.064" cy="206.427" r="3.10676" fill="#FF0080"/>
<path d="M86.8139 210.673C88.9933 210.66 91.1489 210.236 93.1575 209.425C95.1661 208.615 96.9885 207.434 98.5204 205.949C100.052 204.465 101.264 202.707 102.086 200.776C102.908 198.844 103.325 196.776 103.312 194.691C103.299 192.606 102.857 190.543 102.011 188.622C101.165 186.7 99.9315 184.958 98.3812 183.493C96.831 182.028 94.9942 180.869 92.9756 180.084C90.9571 179.298 88.7965 178.901 86.617 178.914L86.6359 181.969C88.3961 181.958 90.1411 182.279 91.7713 182.914C93.4014 183.548 94.8849 184.484 96.1369 185.667C97.3889 186.85 98.385 188.258 99.0682 189.809C99.7514 191.361 100.108 193.027 100.119 194.711C100.129 196.395 99.793 198.065 99.129 199.625C98.4651 201.185 97.4866 202.605 96.2493 203.803C95.0121 205.002 93.5403 205.956 91.9181 206.61C90.296 207.265 88.2316 207.452 86.4714 207.463L86.8139 210.673Z" fill="#FFA3F6"/>
<path d="M122.89 62.9982C122.89 82.9208 103.377 99.0712 65.9378 99.0712C28.4987 99.0712 10.3558 82.9208 10.3558 62.9982C10.3558 43.0757 28.4987 26.9253 65.9378 26.9253C103.377 26.9253 122.89 43.0757 122.89 62.9982Z" fill="#FF3098"/>
<path d="M128.931 99.4165L120.391 101.621C113.515 103.397 106.218 102.455 100.018 98.9906L89.4057 93.0613L107.674 69.7295L114.771 84.1381C117.904 90.4999 122.825 95.8095 128.931 99.4165Z" fill="#FF3098"/>
<circle cx="47.1193" cy="63.3434" r="6.38612" fill="#BD00B6"/>
<circle cx="67.1405" cy="63.3434" r="6.38612" fill="#BD00B6"/>
<circle cx="87.162" cy="63.3434" r="6.38612" fill="#BD00B6"/>
</g>
<defs>
<clipPath id="clip0_9_34">
<rect width="295.142" height="291" rx="36.5907" fill="white"/>
</clipPath>
</defs>
</svg>
