<svg width="297" height="293" viewBox="0 0 297 293" fill="none" xmlns="http://www.w3.org/2000/svg">
<rect width="296.957" height="292.789" rx="36.8158" fill="#7BEFFF"/>
<rect x="104.487" y="32.2582" width="143.203" height="201.087" transform="rotate(7.97851 104.487 32.2582)" fill="white"/>
<rect x="49.1411" y="67.3285" width="143.203" height="201.087" transform="rotate(-9.0025 49.1411 67.3285)" fill="white"/>
<rect x="159.308" y="26.8317" width="143.203" height="201.087" transform="rotate(21.128 159.308 26.8317)" fill="white"/>
<rect x="14.6208" y="221.017" width="131.747" height="34.6701" rx="5.72811" transform="rotate(-31.3485 14.6208 221.017)" fill="#FFC700"/>
<line x1="27.6582" y1="213.17" x2="36.0157" y2="226.495" stroke="#CA8500" stroke-width="0.904438"/>
<line x1="50.2869" y1="199.516" x2="58.6443" y2="212.841" stroke="#CA8500" stroke-width="0.904438"/>
<line x1="75.261" y1="184.371" x2="83.6184" y2="197.696" stroke="#CA8500" stroke-width="0.904438"/>
<line x1="37.995" y1="207.182" x2="42.675" y2="214.785" stroke="#CA8500" stroke-width="0.904438"/>
<line x1="61.8356" y1="192.448" x2="66.5156" y2="200.051" stroke="#CA8500" stroke-width="0.904438"/>
<line x1="88.6908" y1="176.3" x2="93.3708" y2="183.903" stroke="#CA8500" stroke-width="0.904438"/>
<line x1="112.531" y1="161.566" x2="117.211" y2="169.169" stroke="#CA8500" stroke-width="0.904438"/>
<line x1="100.7" y1="168.737" x2="109.057" y2="182.062" stroke="#CA8500" stroke-width="0.904438"/>
<rect x="53.0281" y="44.5879" width="94.3631" height="31.3539" transform="rotate(29.4769 53.0281 44.5879)" fill="#FFD600"/>
<path d="M21.659 37.5923C24.1988 33.0988 29.9005 31.5152 34.3939 34.055L53.0281 44.5879L37.5997 71.8831L18.9655 61.3503C14.4721 58.8104 12.8884 53.1088 15.4283 48.6153L21.659 37.5923Z" fill="#FF5CAE"/>
<rect x="41.7427" y="38.2089" width="12.9636" height="31.3539" transform="rotate(29.4769 41.7427 38.2089)" fill="#6E89E9"/>
<rect x="46.113" y="37.2162" width="6.02959" height="37.3835" rx="3.01479" transform="rotate(29.4769 46.113 37.2162)" fill="#4D61A7"/>
<path d="M135.25 90.8901L152.021 116.218C152.973 117.655 151.893 119.566 150.171 119.491L119.822 118.185L135.25 90.8901Z" fill="#FFE791"/>
<path d="M148.093 110.443L152.584 116.515C153.663 117.974 152.519 120.025 150.711 119.873L143.124 119.236L148.093 110.443Z" fill="black"/>
<path d="M222.208 107.327C221.667 107.329 221.139 107.171 220.693 106.872C220.248 106.574 219.906 106.15 219.714 105.656L215.457 94.8396C215.371 94.6217 215.239 94.4237 215.07 94.2585C214.901 94.0932 214.699 93.9644 214.475 93.8801L203.404 89.7174C202.899 89.5282 202.465 89.1941 202.159 88.759C201.854 88.324 201.69 87.8085 201.69 87.2805C201.69 86.7526 201.854 86.2371 202.159 85.8021C202.465 85.367 202.899 85.0328 203.404 84.8437L214.472 80.6841C214.695 80.5999 214.898 80.471 215.067 80.3057C215.236 80.1405 215.368 79.9426 215.454 79.7246L219.714 68.9049C219.907 68.412 220.249 67.9881 220.695 67.6891C221.14 67.3901 221.667 67.23 222.208 67.23C222.748 67.23 223.275 67.3901 223.72 67.6891C224.166 67.9881 224.508 68.412 224.701 68.9049L228.958 79.7215C229.044 79.9394 229.176 80.1374 229.345 80.3026C229.514 80.4679 229.717 80.5967 229.94 80.681L240.944 84.8186C241.469 85.0087 241.921 85.3523 242.239 85.8026C242.557 86.2528 242.725 86.7878 242.721 87.3348C242.713 87.8536 242.545 88.358 242.241 88.7827C241.936 89.2075 241.508 89.5331 241.011 89.7174L229.943 93.877C229.72 93.9612 229.517 94.0901 229.348 94.2553C229.179 94.4206 229.047 94.6185 228.961 94.8365L224.701 105.656C224.509 106.15 224.167 106.574 223.722 106.872C223.276 107.171 222.748 107.329 222.208 107.327Z" fill="#FFA3F6"/>
<path d="M169.449 246.61C168.908 246.613 168.38 246.454 167.935 246.156C167.489 245.857 167.147 245.433 166.955 244.94L162.699 234.123C162.612 233.905 162.48 233.707 162.311 233.542C162.142 233.377 161.94 233.248 161.717 233.164L150.645 229.001C150.141 228.812 149.707 228.478 149.401 228.042C149.095 227.607 148.931 227.092 148.931 226.564C148.931 226.036 149.095 225.521 149.401 225.086C149.707 224.65 150.141 224.316 150.645 224.127L161.713 219.968C161.937 219.883 162.139 219.754 162.308 219.589C162.477 219.424 162.609 219.226 162.695 219.008L166.955 208.188C167.149 207.695 167.491 207.272 167.936 206.973C168.381 206.674 168.909 206.513 169.449 206.513C169.989 206.513 170.516 206.674 170.962 206.973C171.407 207.272 171.749 207.695 171.942 208.188L176.199 219.005C176.285 219.223 176.417 219.421 176.586 219.586C176.755 219.751 176.958 219.88 177.181 219.964L188.185 224.102C188.71 224.292 189.162 224.636 189.48 225.086C189.798 225.536 189.966 226.071 189.962 226.618C189.954 227.137 189.787 227.641 189.482 228.066C189.177 228.491 188.749 228.817 188.253 229.001L177.184 233.16C176.961 233.245 176.758 233.374 176.589 233.539C176.42 233.704 176.288 233.902 176.202 234.12L171.942 244.94C171.75 245.433 171.408 245.857 170.963 246.156C170.517 246.454 169.989 246.613 169.449 246.61Z" fill="#96FFAD"/>
<path d="M231.79 119.629C216.731 113.415 202.849 126.006 202.849 126.006C202.849 126.006 201.887 107.288 186.829 101.074C174.591 96.0236 160.444 102.821 155.002 115.652C143.711 142.289 156.234 169.714 171.968 194.912C172.402 195.607 173.032 196.144 173.776 196.451C174.521 196.758 175.346 196.822 176.144 196.635C205.067 189.867 233.287 179.257 244.071 152.41C249.262 139.476 244.027 124.68 231.79 119.629Z" stroke="black" stroke-width="7.11263" stroke-linecap="round" stroke-linejoin="round"/>
<path d="M204.168 171.863C199.469 164.003 202.032 153.822 209.893 149.123L218.173 144.173C226.034 139.475 236.215 142.038 240.913 149.898L266.127 192.078C267.835 194.936 266.903 198.639 264.045 200.347L237.65 216.125C234.792 217.833 231.09 216.901 229.381 214.043L204.168 171.863Z" fill="#D9D9D9"/>
<rect x="206.952" y="176.521" width="42.8101" height="34.9716" transform="rotate(-30.8691 206.952 176.521)" fill="#4D61A7"/>
</svg>
