<svg width="74" height="73" viewBox="0 0 74 73" fill="none" xmlns="http://www.w3.org/2000/svg">
<g clip-path="url(#clip0_11_10)">
<path d="M71.8372 36.9548C71.8372 56.4583 56.0265 72.269 36.523 72.269C17.0195 72.269 1.2088 56.4583 1.2088 36.9548C1.2088 17.4513 17.0195 1.64062 36.523 1.64062C56.0265 1.64062 71.8372 17.4513 71.8372 36.9548Z" fill="#001253"/>
<ellipse cx="36.8252" cy="20.0846" rx="16.1893" ry="16.372" fill="#D9D9D9"/>
<path d="M54.3788 15.5555C54.3788 24.1467 47.492 31.1112 38.9968 31.1112C30.5015 31.1112 23.6147 24.1467 23.6147 15.5555C23.6147 6.9644 29.7762 2.5686 38.2714 2.5686C46.7667 2.5686 54.3788 6.9644 54.3788 15.5555Z" fill="#001253"/>
<path d="M68.9663 50.9421C66.5039 56.9537 62.2486 62.1551 56.8294 65.9269C51.4102 69.6987 44.9888 71.8836 38.3272 72.2224C31.6656 72.5612 25.0437 71.0395 19.2473 67.8381C13.4509 64.6366 8.72355 59.8898 5.62622 54.161L26.0033 43.8023C27.0564 45.7502 28.6638 47.3642 30.6347 48.4528C32.6056 49.5413 34.8572 50.0587 37.1222 49.9435C39.3873 49.8284 41.5707 49.0854 43.4133 47.803C45.256 46.5205 46.6804 44.7523 47.5177 42.7083L68.9663 50.9421Z" fill="#E14D2A"/>
<path d="M47.0682 26.0754L68.9447 50.9637L13.34 63.7209L47.0682 26.0754Z" fill="#E14D2A"/>
<path d="M22.0174 36.4365L52.3453 59.4684L12.8866 62.9653L5.76337 54.0289L22.0174 36.4365Z" fill="#E14D2A"/>
<path d="M19.4598 56.9114L30.0446 41.4634L31.9363 42.9529L19.4598 56.9114Z" fill="#001253"/>
<path d="M33.0477 44.812L47.1866 30.1281L51.7314 35.1837L33.0477 44.812Z" fill="#D9D9D9"/>
<path d="M44.8497 42.8569L50.5899 33.9075L54.7963 38.5278L44.8497 42.8569Z" fill="#D9D9D9"/>
<path d="M11.3541 30.6517L10.3647 28.0146L7.72766 27.0253L10.3647 26.036L11.3541 23.3989L12.3434 26.036L14.9805 27.0253L12.3434 28.0146L11.3541 30.6517Z" fill="#D9D9D9"/>
<path d="M48.0929 15.4554L47.1036 12.8184L44.4665 11.829L47.1036 10.8397L48.0929 8.20264L49.0822 10.8397L51.7193 11.829L49.0822 12.8184L48.0929 15.4554Z" fill="#D9D9D9"/>
<path d="M62.1668 38.5089L61.1775 35.8718L58.5404 34.8825L61.1775 33.8932L62.1668 31.2561L63.1561 33.8932L65.7932 34.8825L63.1561 35.8718L62.1668 38.5089Z" fill="#D9D9D9"/>
</g>
<defs>
<clipPath id="clip0_11_10">
<rect width="73.9094" height="72.9164" fill="white"/>
</clipPath>
</defs>
</svg>
